<?xml version="1.0" encoding="UTF-8"?>
<svg width="97px" height="24px" viewBox="0 0 97 24" version="1.1" xmlns="http://www.w3.org/2000/svg" xmlns:xlink="http://www.w3.org/1999/xlink">
    <title>760DAFAE-76C6-48ED-B3B8-81DF81BE4207</title>
    <g id="Page-1" stroke="none" stroke-width="1" fill="none" fill-rule="evenodd">
        <g id="Organic-Chemistry-Mobile" transform="translate(-20.000000, -6074.000000)" fill="#FFFFFF" fill-rule="nonzero">
            <g id="Group-30" transform="translate(0.000000, 6022.000000)">
                <g id="AG_logo" transform="translate(20.000000, 52.000000)">
                    <path d="M21.4576408,0.788846825 C21.4370948,0.596228865 21.406276,0.439566257 21.3677524,0.323995481 C21.331797,0.205856466 21.2855687,0.121104563 21.2264992,0.0774444921 C21.1699979,0.0286479422 21.1083602,0.0029655475 21.0364495,0.0029655475 L7.46844038,0.0029655475 C7.42221207,0.000397308029 7.34516488,-0.00217093144 7.23729882,0.0029655475 L7.19107051,0.0029655475 C7.18593403,0.0029655475 7.18079756,0.00553378697 7.17309284,0.00553378697 C7.13713748,0.00810202644 7.10118213,0.0106702659 7.0600903,0.0132385054 C6.36666564,0.0774444921 5.04659056,0.532022878 4.09634195,2.14230903 C2.75828919,4.41006448 4.41737189,4.59240948 4.68446879,4.31503962 C4.9387245,4.05051095 6.2921867,3.13364946 7.2424353,3.04119284 L10.7711963,3.04119284 C10.4604394,4.43061039 8.45464433,12.8570041 4.22475393,18.4198108 C4.22475393,18.4198108 3.43373617,19.3931735 2.62987722,19.3289676 L2.62730898,19.334104 C2.5245794,19.3212628 2.42184982,19.3109899 2.316552,19.3109899 C1.03756875,19.3109899 0,20.3485586 0,21.6275419 C0,22.7421578 0.788449517,23.6718605 1.83629122,23.8927291 C8.47005377,25.6494049 12.1888645,5.28069766 12.5766687,3.04119284 L16.2543876,3.04119284 C16.1362486,3.40845108 15.3940274,5.82259618 15.1551811,9.35392545 L12.494485,9.35392545 C12.4200061,9.35392545 12.3583683,9.37447137 12.3018671,9.42069968 C12.2453658,9.46692799 12.1991375,9.53113398 12.1580456,9.62615884 C12.1169538,9.71604722 12.0887032,9.83932271 12.0681573,9.99341708 C12.0476113,10.1449432 12.0399066,10.3349929 12.0399066,10.560998 C12.0399066,10.9924622 12.075862,11.3032192 12.1580456,11.482996 C12.2350928,11.665341 12.3506636,11.7552294 12.494485,11.7552294 L15.0832704,11.7552294 C15.0935434,13.3757885 15.2296601,15.1478737 15.5660994,17.0072791 C15.5660994,17.0072791 15.6739655,18.1938057 16.3468442,18.2374658 C17.0222912,18.2811258 17.9083338,18.0345749 18.3475028,17.8522299 C18.7866717,17.6698849 19.1667712,17.3026266 19.0101085,16.8814353 C19.0101085,16.8814353 16.891311,11.6884551 18.2807285,3.04119284 L21.0364495,3.04119284 C21.1083602,3.04119284 21.1699979,3.02064692 21.2264992,2.97185037 C21.2830005,2.92305382 21.331797,2.84087016 21.3677524,2.72529938 C21.406276,2.60716037 21.4370948,2.453066 21.4576408,2.26044804 C21.4781867,2.06783008 21.4910279,1.82384733 21.4910279,1.52336331 C21.4884596,1.22544753 21.4781867,0.976328306 21.4576408,0.788846825 Z" id="Path"></path>
                    <path d="M33.2664058,17.1767829 C33.2664058,17.2589665 33.2407234,17.328309 33.1970634,17.3899468 C33.1482668,17.446448 33.0660832,17.500381 32.9530806,17.5389046 C32.8426463,17.5799965 32.6859837,17.6082471 32.4882293,17.628793 C32.2904748,17.6493389 32.0464921,17.6621801 31.7588493,17.6621801 C31.4635017,17.6621801 31.2143825,17.6493389 31.0166281,17.628793 C30.8188736,17.6082471 30.662211,17.5799965 30.5517767,17.5389046 C30.4413424,17.5029493 30.3591588,17.4490163 30.307794,17.3899468 C30.2615657,17.328309 30.2384515,17.2589665 30.2384515,17.1767829 L30.2384515,11.0361223 C30.2384515,10.5122015 30.2024962,10.1064196 30.1228807,9.8059356 C30.0458335,9.51058806 29.9379675,9.25376411 29.7890096,9.04060024 C29.6451882,8.8300046 29.4602749,8.66563728 29.2291334,8.54749826 C29.0031283,8.43192748 28.7360314,8.37542622 28.4252744,8.37542622 C28.0426068,8.37542622 27.6522344,8.51667939 27.2567255,8.79661749 C26.8663531,9.08169207 26.4528665,9.48747391 26.0265388,10.0268042 L26.0265388,17.1793511 C26.0265388,17.2615348 26.0059929,17.3308772 25.9571963,17.392515 C25.9083998,17.4490163 25.8262161,17.5029493 25.7106453,17.5414729 C25.5925063,17.5825647 25.4384119,17.6108153 25.245794,17.6313613 C25.053176,17.6519072 24.8091933,17.6647484 24.5087093,17.6647484 C24.2133617,17.6647484 23.9642425,17.6519072 23.776761,17.6313613 C23.584143,17.6108153 23.4274804,17.5825647 23.3119097,17.5414729 C23.1937706,17.5055175 23.1090187,17.4515845 23.0653587,17.392515 C23.0165621,17.3308772 22.9908797,17.2615348 22.9908797,17.1793511 L22.9908797,1.31533592 C22.9908797,1.23315225 23.0165621,1.16380979 23.0653587,1.09703556 C23.111587,1.03026134 23.1937706,0.978896546 23.3119097,0.935236475 C23.4274804,0.889008164 23.584143,0.858189291 23.776761,0.832506896 C23.9668107,0.806824501 24.2133617,0.796551543 24.5087093,0.796551543 C24.8091933,0.796551543 25.053176,0.809392741 25.245794,0.832506896 C25.4384119,0.858189291 25.5925063,0.889008164 25.7106453,0.935236475 C25.8262161,0.976328306 25.9083998,1.03026134 25.9571963,1.09703556 C26.0059929,1.16380979 26.0265388,1.23315225 26.0265388,1.31533592 L26.0265388,7.26337853 C26.5504596,6.74973063 27.0846534,6.36449471 27.6291202,6.110239 C28.1684505,5.85855154 28.7360314,5.73013956 29.32159,5.73013956 C30.0535383,5.73013956 30.672484,5.84827858 31.1758589,6.09226133 C31.6792338,6.33624408 32.0850157,6.66497873 32.3957727,7.08103352 C32.7039614,7.5022248 32.9273982,7.98762206 33.0635149,8.54749826 C33.2021999,9.10737447 33.2689741,9.78282145 33.2689741,10.5815439 L33.2689741,17.1767829 L33.2664058,17.1767829 Z" id="Path"></path>
                    <path d="M45.419315,17.2153065 C45.419315,17.3308772 45.3782232,17.4181974 45.2960395,17.4824034 C45.2189923,17.5440411 45.0905804,17.5902694 44.9159401,17.6185201 C44.743868,17.6467707 44.4870441,17.6647484 44.1506047,17.6647484 C43.7884829,17.6647484 43.5239543,17.6493389 43.359587,17.6185201 C43.1952196,17.5902694 43.0796489,17.5440411 43.0103064,17.4824034 C42.9435322,17.4156291 42.9075768,17.3308772 42.9075768,17.2153065 L42.9075768,16.3600827 C42.4658396,16.8326388 41.9598964,17.2050335 41.3948838,17.4721304 C40.8273028,17.7366591 40.1955159,17.8676393 39.5046595,17.8676393 C38.9319421,17.8676393 38.4080213,17.7931603 37.9303287,17.6442025 C37.4526362,17.4952446 37.0365814,17.274376 36.6873008,16.9815967 C36.3380202,16.6888174 36.0657869,16.3241274 35.8706007,15.8900949 C35.6779827,15.4534942 35.5829578,14.947551 35.5829578,14.3696971 C35.5829578,13.7379102 35.7062333,13.1960117 35.9502161,12.7337286 C36.1967671,12.2688773 36.5640253,11.8887778 37.0494226,11.5857256 C37.5348198,11.2852415 38.1409244,11.0618047 38.8651679,10.9179833 C39.5894114,10.7741619 40.4292257,10.6996829 41.3846108,10.6996829 L42.4350207,10.6996829 L42.4350207,10.0499184 C42.4350207,9.71347898 42.4016336,9.4155632 42.3322912,9.16387573 C42.2655169,8.90962003 42.1499462,8.69902439 41.9932836,8.52952058 C41.8366209,8.36001678 41.6260253,8.23674129 41.3666331,8.15455762 C41.1021045,8.07237396 40.7810745,8.03641861 40.3958386,8.03641861 C39.8898954,8.03641861 39.435317,8.09035164 39.0372399,8.20592241 C38.6417311,8.31635671 38.287314,8.4396322 37.9842617,8.58088537 C37.6786412,8.71700207 37.4243855,8.84027756 37.2189264,8.95071186 C37.0134672,9.06628263 36.8490999,9.12021566 36.7155514,9.12021566 C36.6282313,9.12021566 36.5511841,9.09453327 36.4818417,9.038032 C36.4150674,8.98153073 36.3585662,8.90191531 36.3123379,8.79404925 C36.271246,8.69131967 36.2352907,8.5629077 36.2096083,8.41138157 C36.1839259,8.25471896 36.1762212,8.08521516 36.1762212,7.90030191 C36.1762212,7.65375093 36.1916306,7.45599649 36.2327224,7.31217508 C36.2738143,7.16835367 36.3508614,7.03737345 36.463864,6.92180268 C36.5742983,6.80366366 36.7720527,6.67525169 37.0519908,6.53399852 C37.3370654,6.39531359 37.6658001,6.26176513 38.0433313,6.14362612 C38.4182942,6.02035062 38.834349,5.92532576 39.2786544,5.84827858 C39.7229599,5.77123139 40.185243,5.7327078 40.657799,5.7327078 C41.5027498,5.7327078 42.2269933,5.81489147 42.8253931,5.97925879 C43.4263612,6.14362612 43.9168949,6.40045006 44.3046991,6.74202591 C44.6925032,7.08360176 44.9724413,7.52533895 45.1496499,8.06466924 C45.3268584,8.59886305 45.4167468,9.24349116 45.4167468,9.98057588 L45.4167468,17.2153065 L45.419315,17.2153065 Z M42.437589,12.6078849 L41.279313,12.6078849 C40.7887792,12.6078849 40.3701562,12.6438402 40.0234439,12.7157509 C39.6767316,12.7902299 39.3967935,12.8980959 39.1784931,13.0419173 C38.9601927,13.1908752 38.8035301,13.3629473 38.7008006,13.5684064 C38.6032075,13.7738656 38.5518427,14.0075754 38.5518427,14.272104 C38.5518427,14.7241142 38.6930958,15.0785312 38.9807387,15.3353552 C39.2658132,15.5947474 39.6613221,15.7231593 40.1672653,15.7231593 C40.5961613,15.7231593 40.9865337,15.6152933 41.3460872,15.3969929 C41.7056407,15.1786926 42.0677625,14.8627991 42.437589,14.4416078 L42.437589,12.6078849 L42.437589,12.6078849 Z" id="Shape"></path>
                    <path d="M61.15235,4.40235976 C61.15235,4.63350131 61.1446453,4.83382399 61.1240994,5.00332779 C61.1035534,5.1728316 61.0753028,5.30894829 61.0367792,5.40654139 C61.0008239,5.50927097 60.959732,5.57861343 60.905799,5.61970527 C60.851866,5.6607971 60.7902282,5.67620653 60.7208858,5.67620653 C60.6130197,5.67620653 60.4460841,5.60686407 60.2149426,5.46304266 C59.9812328,5.31408477 59.6704758,5.15742216 59.2826717,4.9904866 C58.8948675,4.82098279 58.4351526,4.66432018 57.9035271,4.52049877 C57.366765,4.37667736 56.7452511,4.30219842 56.036417,4.30219842 C55.2787863,4.30219842 54.5956346,4.43317863 53.9843936,4.6977073 C53.3705844,4.95709948 52.8466636,5.32692597 52.4151993,5.80461851 C51.9837351,6.28231105 51.6447275,6.86016493 51.4135859,7.53047543 C51.1798761,8.20078593 51.0643054,8.94300714 51.0643054,9.75970729 C51.0643054,10.6483181 51.1824444,11.4367677 51.4187224,12.1147829 C51.6575687,12.7953663 51.9863033,13.3680837 52.4151993,13.8252304 C52.8440953,14.282377 53.355175,14.6290893 53.956143,14.8627991 C54.5519746,15.0965089 55.2171486,15.2120797 55.9362556,15.2120797 C56.2906727,15.2120797 56.6399532,15.1709879 56.9866656,15.0939407 C57.3333779,15.011757 57.6544078,14.8910497 57.9548919,14.7318189 L57.9548919,11.1106013 L54.9988482,11.1106013 C54.8550268,11.1106013 54.739456,11.0207129 54.6624089,10.8383679 C54.5802252,10.6560229 54.5442698,10.3478341 54.5442698,9.9163699 C54.5442698,9.69036482 54.5519746,9.5003151 54.5725205,9.34878898 C54.5930664,9.19726285 54.621317,9.07398735 54.6624089,8.98153073 C54.7035007,8.88650587 54.749729,8.81973164 54.8062303,8.77607157 C54.8627315,8.72984326 54.9243693,8.70929735 54.9988482,8.70929735 L60.2714439,8.70929735 C60.3998558,8.70929735 60.5154266,8.72984326 60.6181562,8.77607157 C60.7157493,8.82229988 60.8082059,8.88650587 60.8826849,8.97382601 C60.959732,9.06371439 61.0188015,9.17158045 61.0598934,9.29485595 C61.0958487,9.41813144 61.1163946,9.56195285 61.1163946,9.72375194 L61.1163946,15.9388915 C61.1163946,16.1777377 61.0753028,16.3883334 60.9931191,16.5681101 C60.905799,16.7504551 60.733727,16.8942765 60.4743348,16.9970061 C60.2098061,17.1048722 59.8862079,17.21017 59.500972,17.3257408 C59.1131679,17.4361751 58.7150907,17.5311999 58.2990359,17.6133836 C57.8881176,17.6904308 57.4669264,17.7520685 57.0457351,17.7957286 C56.6219756,17.8368204 56.1982161,17.8522299 55.7693201,17.8522299 C54.5262922,17.8522299 53.409108,17.6750213 52.4203358,17.318036 C51.4367001,16.9584825 50.6045905,16.4396981 49.9214388,15.7616829 C49.2382871,15.0810995 48.7143662,14.2541264 48.3522445,13.2781954 C47.9901227,12.2971279 47.8077777,11.1902167 47.8077777,9.94975701 C47.8077777,8.67334199 48.0003957,7.52277071 48.3881998,6.50574788 C48.7708675,5.48872505 49.3204708,4.62322835 50.0267366,3.91182602 C50.7355707,3.20042369 51.5882262,2.65595692 52.5872714,2.27585748 C53.591453,1.89575804 54.7086372,1.71084479 55.9362556,1.71084479 C56.6168391,1.71084479 57.2306483,1.7570731 57.7853881,1.84696149 C58.3375595,1.94198635 58.8229568,2.05242064 59.2390116,2.18340086 C59.6499299,2.31438107 59.9966422,2.45820248 60.2688756,2.61229685 C60.5436772,2.76382298 60.733727,2.89993967 60.841593,3.01294221 C60.9520273,3.1233765 61.0316427,3.28517559 61.0804393,3.49063475 C61.1292358,3.69352566 61.15235,3.99914616 61.15235,4.40235976 L61.15235,4.40235976 Z" id="Path"></path>
                    <path d="M74.4018974,17.1767829 C74.4018974,17.2589665 74.3813515,17.328309 74.3402597,17.3899468 C74.2991678,17.446448 74.2298254,17.500381 74.129664,17.5389046 C74.0269345,17.5799965 73.8959542,17.6082471 73.7290187,17.628793 C73.5646513,17.6493389 73.3591922,17.6621801 73.1075047,17.6621801 C72.8429761,17.6621801 72.6246757,17.6493389 72.4603084,17.628793 C72.2959411,17.6082471 72.1675291,17.5799965 72.069936,17.5389046 C71.9749111,17.5029493 71.9055687,17.4490163 71.8644768,17.3899468 C71.8285215,17.328309 71.8079756,17.2589665 71.8079756,17.1767829 L71.8079756,15.9363232 C71.2095758,16.5783831 70.6060395,17.0612121 69.9922302,17.382242 C69.3732845,17.703272 68.7389294,17.8650711 68.0814601,17.8650711 C67.3392389,17.8650711 66.7177249,17.7443638 66.2169182,17.5029493 C65.7135433,17.264103 65.3077615,16.9353684 64.9970045,16.5141771 C64.6888157,16.0981223 64.4653789,15.612725 64.3343987,15.0605536 C64.2034185,14.5083821 64.1366443,13.8252304 64.1366443,13.005962 L64.1366443,6.4158595 C64.1366443,6.33881232 64.1571902,6.26433337 64.2034185,6.20526387 C64.2445103,6.14362612 64.326694,6.09482957 64.4422648,6.05373774 C64.5604038,6.0126459 64.7170664,5.98439527 64.9122526,5.96384935 C65.110007,5.94330344 65.3514215,5.93559872 65.6467691,5.93559872 C65.9421166,5.93559872 66.1912358,5.94330344 66.3787173,5.96384935 C66.5713353,5.98439527 66.7279979,6.0126459 66.8435687,6.05373774 C66.9617077,6.09482957 67.0464596,6.14362612 67.0901196,6.20526387 C67.1389162,6.26176513 67.1645986,6.33624408 67.1645986,6.4158595 L67.1645986,12.5000188 C67.1645986,13.059895 67.2005539,13.4939275 67.2724647,13.789275 C67.3469436,14.0846226 67.4573779,14.3414465 67.6063358,14.5546104 C67.7552937,14.7677743 67.9427752,14.9347098 68.1713485,15.0477124 C68.40249,15.1684196 68.6695869,15.2249209 68.9752074,15.2249209 C69.3630116,15.2249209 69.7482475,15.0862359 70.1411881,14.8011614 C70.5315605,14.5212233 70.9476153,14.1077367 71.3893525,13.5709747 L71.3893525,6.4158595 C71.3893525,6.33881232 71.4150349,6.26433337 71.4561267,6.20526387 C71.5023551,6.14362612 71.5845387,6.09482957 71.7001095,6.05373774 C71.8156803,6.0126459 71.9723429,5.98439527 72.1649608,5.96384935 C72.3575788,5.94330344 72.6015615,5.93559872 72.8969091,5.93559872 C73.1973931,5.93559872 73.4413759,5.94330344 73.6339938,5.96384935 C73.8266118,5.98439527 73.9807061,6.0126459 74.0911404,6.05373774 C74.2067112,6.09482957 74.2837584,6.14362612 74.3351232,6.20526387 C74.3839197,6.26176513 74.4096021,6.33624408 74.4096021,6.4158595 L74.4096021,17.1767829 L74.4018974,17.1767829 Z" id="Path"></path>
                    <path d="M84.3692348,7.41747289 C84.3692348,7.71025219 84.3615301,7.94396199 84.3435524,8.12887523 C84.328143,8.31378847 84.3024606,8.45760988 84.2690735,8.56547594 C84.2408228,8.66820552 84.1945945,8.74268446 84.145798,8.77863981 C84.0918649,8.81973164 84.0276589,8.84027756 83.942907,8.84027756 C83.8812693,8.84027756 83.8067904,8.82743636 83.7297432,8.79918573 C83.6475595,8.77093509 83.5576711,8.74268446 83.4575098,8.70929735 C83.3547802,8.67591023 83.2443459,8.6476596 83.1236387,8.61940897 C83.0054996,8.59115833 82.8719512,8.57831713 82.7229933,8.57831713 C82.5534895,8.57831713 82.3865539,8.61170425 82.2170501,8.67591023 C82.0475463,8.7452527 81.8754743,8.85311876 81.6931293,8.99694017 C81.5107843,9.14076158 81.3233028,9.33594778 81.1255483,9.57736229 C80.9277939,9.81620856 80.7171983,10.1166926 80.4911932,10.4659731 L80.4911932,17.1742146 C80.4911932,17.2563983 80.4706473,17.3257408 80.4218507,17.3873785 C80.3730542,17.4438798 80.2908705,17.4978128 80.1752997,17.5363364 C80.0571607,17.5774282 79.9030664,17.6056789 79.7104484,17.6262248 C79.5178304,17.6467707 79.2738477,17.6596119 78.9733637,17.6596119 C78.6780161,17.6596119 78.4288969,17.6467707 78.2414154,17.6262248 C78.0487975,17.6056789 77.8921349,17.5774282 77.7765641,17.5363364 C77.6584251,17.500381 77.5736732,17.446448 77.5300131,17.3873785 C77.4812165,17.3257408 77.4555341,17.2563983 77.4555341,17.1742146 L77.4555341,6.41329126 C77.4555341,6.33624408 77.4760801,6.26176513 77.5171719,6.20269563 C77.5582637,6.14105788 77.6276062,6.09226133 77.7354722,6.0511695 C77.8382018,6.01007767 77.9743185,5.98182703 78.1386858,5.96128112 C78.3030532,5.9407352 78.5085123,5.93303048 78.7601998,5.93303048 C79.0170237,5.93303048 79.2301876,5.9407352 79.3996914,5.96128112 C79.5691952,5.98182703 79.7001754,6.01007767 79.7900638,6.0511695 C79.8850887,6.09226133 79.9518629,6.14105788 79.9878183,6.20269563 C80.0289101,6.25919689 80.049456,6.33367584 80.049456,6.41329126 L80.049456,7.75134403 C80.3293941,7.35069867 80.596491,7.01939578 80.8456102,6.76000359 C81.0972977,6.49547493 81.336144,6.29001577 81.5570126,6.13848964 C81.7830176,5.98696351 82.011591,5.87909745 82.2324596,5.81745971 C82.4584646,5.75582196 82.6844697,5.72757132 82.9079065,5.72757132 C83.0157726,5.72757132 83.1262069,5.73527604 83.2443459,5.74811724 C83.3676214,5.75582196 83.4908969,5.77636787 83.6193089,5.80461851 C83.7477208,5.83286914 83.8632916,5.86625626 83.9557482,5.90221161 C84.0533413,5.93559872 84.125252,5.97669055 84.1689121,6.0126459 C84.2100039,6.05373774 84.2433911,6.09996605 84.263937,6.1487626 C84.2844829,6.19499091 84.2998923,6.25919689 84.31787,6.34651704 C84.3332794,6.4287007 84.3461206,6.55711267 84.3538254,6.72661648 C84.3640983,6.89868852 84.3692348,7.12983007 84.3692348,7.41747289 L84.3692348,7.41747289 Z" id="Path"></path>
                    <path d="M96.447665,17.1767829 C96.447665,17.2589665 96.4271191,17.328309 96.3860273,17.3899468 C96.3449354,17.446448 96.275593,17.500381 96.1754316,17.5389046 C96.0727021,17.5799965 95.9417218,17.6082471 95.7773545,17.628793 C95.6129872,17.6493389 95.407528,17.6621801 95.1558406,17.6621801 C94.8913119,17.6621801 94.6730115,17.6493389 94.5086442,17.628793 C94.3442769,17.6082471 94.2158649,17.5799965 94.1182718,17.5389046 C94.023247,17.5029493 93.9539045,17.4490163 93.9128127,17.3899468 C93.8768573,17.328309 93.8563114,17.2589665 93.8563114,17.1767829 L93.8563114,15.9363232 C93.2604798,16.5783831 92.6543753,17.0612121 92.0405661,17.382242 C91.4216204,17.703272 90.7872652,17.8650711 90.1297959,17.8650711 C89.3875747,17.8650711 88.7660608,17.7443638 88.2626858,17.5029493 C87.7593109,17.264103 87.3535291,16.9353684 87.0427721,16.5141771 C86.7345833,16.0981223 86.5111465,15.612725 86.3801663,15.0605536 C86.2491861,14.5083821 86.1824119,13.8252304 86.1824119,13.005962 L86.1824119,6.4158595 C86.1824119,6.33881232 86.2029578,6.26433337 86.2491861,6.20526387 C86.2902779,6.14362612 86.3724616,6.09482957 86.4880324,6.05373774 C86.6061714,6.0126459 86.762834,5.98439527 86.9580202,5.96384935 C87.1557746,5.94330344 87.3971891,5.93559872 87.6899684,5.93559872 C87.985316,5.93559872 88.2344352,5.94330344 88.4244849,5.96384935 C88.6171029,5.98439527 88.7737655,6.0126459 88.8893363,6.05373774 C89.0074753,6.09482957 89.0922272,6.14362612 89.1358872,6.20526387 C89.1846838,6.26176513 89.2103662,6.33624408 89.2103662,6.4158595 L89.2103662,12.5000188 C89.2103662,13.059895 89.2463215,13.4939275 89.3182323,13.789275 C89.3927112,14.0846226 89.5031455,14.3414465 89.6521034,14.5546104 C89.8010613,14.7677743 89.991111,14.9347098 90.2171161,15.0477124 C90.4482576,15.1684196 90.7153545,15.2249209 91.020975,15.2249209 C91.4087792,15.2249209 91.7965833,15.0862359 92.1869557,14.8011614 C92.5773281,14.5212233 92.9933829,14.1077367 93.4351201,13.5709747 L93.4351201,6.4158595 C93.4351201,6.33881232 93.4608025,6.26433337 93.5018943,6.20526387 C93.5481227,6.14362612 93.6303063,6.09482957 93.7458771,6.05373774 C93.8614479,6.0126459 94.0181105,5.98439527 94.2107284,5.96384935 C94.4033464,5.94330344 94.6473292,5.93559872 94.9452449,5.93559872 C95.2457289,5.93559872 95.4897117,5.94330344 95.6823297,5.96384935 C95.8749476,5.98439527 96.029042,6.0126459 96.1394763,6.05373774 C96.2550471,6.09482957 96.3320942,6.14362612 96.383459,6.20526387 C96.4322556,6.26176513 96.457938,6.33624408 96.457938,6.4158595 L96.457938,17.1767829 L96.447665,17.1767829 Z" id="Path"></path>
                </g>
            </g>
        </g>
    </g>
</svg>