<?xml version="1.0" encoding="UTF-8"?>
<svg width="32px" height="40px" viewBox="0 0 32 40" version="1.1" xmlns="http://www.w3.org/2000/svg" xmlns:xlink="http://www.w3.org/1999/xlink">
    <title>AF8D164D-0917-4C10-B0FF-1FCC297B9AE5</title>
    <g id="Page-1" stroke="none" stroke-width="1" fill="none" fill-rule="evenodd">
        <g id="Organic-Chemistry-Mobile" transform="translate(-24.000000, -1505.000000)" fill="#007FFC" fill-rule="nonzero">
            <g id="noun_exam_3961404-copy-2" transform="translate(24.000000, 1505.000000)">
                <path d="M26.0666667,0 L6.66666667,0 C1.39259259,0 0,4.36296296 0,6.66666667 L0,33.3333333 C0,38.6074074 4.36296296,40 6.66666667,40 L24.4444444,40 C29.7185185,40 31.1111111,35.637037 31.1111111,33.3333333 L31.1111111,5.04444444 C31.1111111,2.26666667 28.8444444,0 26.0666667,0 Z M29.6296296,33.3333333 C29.6296296,33.5481481 29.5407407,38.5185185 24.4444444,38.5185185 L6.66666667,38.5185185 C6.45185185,38.5185185 1.48148148,38.4296296 1.48148148,33.3333333 L1.48148148,6.66666667 C1.48148148,6.45185185 1.57037037,1.48148148 6.66666667,1.48148148 L26.0666667,1.48148148 C28.0296296,1.48148148 29.6296296,3.08148148 29.6296296,5.04444444 L29.6296296,33.3333333 Z M19.7333333,7.88148148 C17.6888889,7.88148148 16.0296296,9.54074074 16.0296296,11.5851852 C16.0296296,13.6296296 17.6888889,15.2888889 19.7333333,15.2888889 C21.7777778,15.2888889 23.437037,13.6296296 23.437037,11.5851852 C23.437037,9.54074074 21.7777778,7.88148148 19.7333333,7.88148148 Z M19.7333333,13.8074074 C18.5111111,13.8074074 17.5111111,12.8074074 17.5111111,11.5851852 C17.5111111,10.362963 18.5111111,9.36296296 19.7333333,9.36296296 C20.9555556,9.36296296 21.9555556,10.362963 21.9555556,11.5851852 C21.9555556,12.8074074 20.9555556,13.8074074 19.7333333,13.8074074 Z M26.8814815,9.54814815 C26.8222222,9.48148148 26.7925926,9.38518519 26.8148148,9.28888889 L26.9851852,8.51851852 C27.1851852,7.61481481 26.6740741,6.72592593 25.7925926,6.44444444 L25.037037,6.20740741 C24.9481481,6.17777778 24.8740741,6.11111111 24.8518519,6.02222222 L24.6148148,5.26666667 C24.3407407,4.38518519 23.4444444,3.86666667 22.5407407,4.07407407 L21.7703704,4.24444444 C21.6814815,4.26666667 21.5851852,4.23703704 21.5111111,4.17777778 L20.9259259,3.64444444 L20.9259259,3.64444444 C20.2444444,3.02222222 19.2148148,3.02222222 18.5333333,3.64444444 L17.9481481,4.17777778 C17.8814815,4.24444444 17.7851852,4.26666667 17.6888889,4.24444444 L16.9185185,4.07407407 C16.0148148,3.87407407 15.1259259,4.38518519 14.8444444,5.26666667 L14.6074074,6.02222222 C14.5777778,6.11111111 14.5111111,6.18518519 14.4222222,6.20740741 L13.6666667,6.44444444 C12.7851852,6.72592593 12.2740741,7.61481481 12.4740741,8.51111111 L12.6444444,9.28148148 C12.6666667,9.37037037 12.637037,9.46666667 12.5777778,9.54074074 L12.0444444,10.1259259 C11.4222222,10.8074074 11.4222222,11.837037 12.0444444,12.5185185 L12.5777778,13.1037037 C12.6444444,13.1703704 12.6666667,13.2666667 12.6444444,13.362963 L12.4740741,14.1333333 C12.2740741,15.037037 12.7851852,15.9259259 13.6666667,16.2074074 L14.4222222,16.4444444 C14.5111111,16.4740741 14.5851852,16.5407407 14.6074074,16.6296296 L14.8444444,17.3851852 C15.0518519,18.0444444 15.6,18.4962963 16.237037,18.6 L15.2666667,26.4148148 C15.2296296,26.6962963 15.362963,26.9777778 15.6,27.1333333 C15.7185185,27.2074074 15.8592593,27.2518519 16,27.2518519 C16.1333333,27.2518519 16.2740741,27.2148148 16.3925926,27.1407407 L19.7259259,25.0592593 L23.037037,27.0444444 C23.2814815,27.1925926 23.5851852,27.1851852 23.8222222,27.0296296 C24.0592593,26.8740741 24.1851852,26.6 24.1555556,26.3185185 L23.2,18.6148148 C23.8444444,18.5111111 24.3851852,18.0592593 24.5925926,17.4 L24.8296296,16.6444444 C24.8592593,16.5555556 24.9259259,16.4814815 25.0148148,16.4592593 L25.7703704,16.2222222 C26.6518519,15.9407407 27.162963,15.0518519 26.962963,14.1481481 L26.7925926,13.3777778 C26.7703704,13.2888889 26.8,13.1925926 26.8592593,13.1185185 L27.3925926,12.5333333 C28.0222222,11.8518519 28.0222222,10.8222222 27.3925926,10.1407407 L26.8814815,9.54814815 Z M20.1185185,23.5407407 C19.8814815,23.4 19.5777778,23.4 19.3481481,23.5481481 L16.9481481,25.0444444 L17.7703704,18.4074074 C17.837037,18.4074074 17.9037037,18.4296296 17.9555556,18.4740741 L18.5407407,19.0074074 C18.8814815,19.3185185 19.3111111,19.4740741 19.7333333,19.4740741 C20.1555556,19.4740741 20.5851852,19.3185185 20.9259259,19.0074074 L21.5111111,18.4740741 C21.562963,18.4296296 21.6296296,18.4074074 21.6962963,18.4074074 L22.5111111,24.9777778 L20.1185185,23.5407407 Z M26.3259259,11.5185185 L25.7925926,12.1037037 C25.4,12.5259259 25.2444444,13.1185185 25.3703704,13.6814815 L25.5407407,14.4518519 C25.5703704,14.5925926 25.4888889,14.7407407 25.3481481,14.7851852 L24.5925926,15.0222222 C24.0444444,15.1925926 23.6074074,15.6296296 23.437037,16.1777778 L23.2,16.9333333 C23.1555556,17.0740741 23.0148148,17.1555556 22.8666667,17.1259259 L22.5925926,17.0666667 C22.5777778,17.0592593 22.562963,17.0592593 22.5481481,17.0592593 L22.0962963,16.9555556 C21.5333333,16.8296296 20.9407407,16.9851852 20.5185185,17.3777778 L19.9333333,17.9111111 C19.8222222,18.0148148 19.6518519,18.0148148 19.5407407,17.9111111 L18.9555556,17.3777778 C18.6222222,17.0740741 18.2,16.9111111 17.7555556,16.9111111 C17.6296296,16.9111111 17.4962963,16.9259259 17.3703704,16.9555556 L16.9407407,17.0518519 C16.9111111,17.0592593 16.8888889,17.0592593 16.8666667,17.0666667 L16.6,17.1259259 C16.4518519,17.1555556 16.3111111,17.0740741 16.2666667,16.9333333 L16.0296296,16.1777778 C15.8592593,15.6296296 15.4222222,15.1925926 14.8740741,15.0222222 L14.1185185,14.7851852 C13.9777778,14.7407407 13.8888889,14.5925926 13.9259259,14.4444444 L14.0962963,13.6740741 C14.2222222,13.1111111 14.0666667,12.5185185 13.6740741,12.0962963 L13.1407407,11.5111111 C13.037037,11.4 13.037037,11.2296296 13.1407407,11.1259259 L13.6740741,10.5407407 C14.0666667,10.1185185 14.2222222,9.52592593 14.0962963,8.96296296 L13.9259259,8.19259259 C13.8962963,8.04444444 13.9777778,7.9037037 14.1185185,7.85925926 L14.8740741,7.62222222 C15.4222222,7.45185185 15.8592593,7.01481481 16.0296296,6.46666667 L16.2666667,5.71111111 C16.3111111,5.57037037 16.4518519,5.48148148 16.6,5.51851852 L17.3703704,5.68888889 C17.9333333,5.81481481 18.5259259,5.65925926 18.9481481,5.26666667 L19.5333333,4.73333333 C19.6444444,4.62962963 19.8148148,4.62962963 19.9259259,4.73333333 L20.5111111,5.26666667 C20.9333333,5.65925926 21.5259259,5.81481481 22.0888889,5.68888889 L22.8592593,5.51851852 C23.0074074,5.48888889 23.1555556,5.57037037 23.1925926,5.71111111 L23.4296296,6.46666667 C23.6,7.01481481 24.037037,7.45185185 24.5851852,7.62222222 L25.3407407,7.85925926 C25.4814815,7.9037037 25.5703704,8.05185185 25.5333333,8.19259259 L25.362963,8.96296296 C25.237037,9.52592593 25.3925926,10.1185185 25.7851852,10.5407407 L26.3185185,11.1259259 C26.4296296,11.2444444 26.4296296,11.4074074 26.3259259,11.5185185 Z M4.44444444,15.5555556 C4.44444444,15.1481481 4.77777778,14.8148148 5.18518519,14.8148148 L9.62962963,14.8148148 C10.037037,14.8148148 10.3703704,15.1481481 10.3703704,15.5555556 C10.3703704,15.962963 10.037037,16.2962963 9.62962963,16.2962963 L5.18518519,16.2962963 C4.77777778,16.2962963 4.44444444,15.962963 4.44444444,15.5555556 Z M4.44444444,20 C4.44444444,19.5925926 4.77777778,19.2592593 5.18518519,19.2592593 L12.5925926,19.2592593 C13,19.2592593 13.3333333,19.5925926 13.3333333,20 C13.3333333,20.4074074 13,20.7407407 12.5925926,20.7407407 L5.18518519,20.7407407 C4.77777778,20.7407407 4.44444444,20.4074074 4.44444444,20 Z M4.44444444,24.4444444 C4.44444444,24.037037 4.77777778,23.7037037 5.18518519,23.7037037 L12.5925926,23.7037037 C13,23.7037037 13.3333333,24.037037 13.3333333,24.4444444 C13.3333333,24.8518519 13,25.1851852 12.5925926,25.1851852 L5.18518519,25.1851852 C4.77777778,25.1851852 4.44444444,24.8518519 4.44444444,24.4444444 Z M26.6666667,28.8888889 C26.6666667,29.2962963 26.3333333,29.6296296 25.9259259,29.6296296 L5.18518519,29.6296296 C4.77777778,29.6296296 4.44444444,29.2962963 4.44444444,28.8888889 C4.44444444,28.4814815 4.77777778,28.1481481 5.18518519,28.1481481 L25.9259259,28.1481481 C26.3333333,28.1481481 26.6666667,28.4814815 26.6666667,28.8888889 Z M26.6666667,33.3333333 C26.6666667,33.7407407 26.3333333,34.0740741 25.9259259,34.0740741 L5.18518519,34.0740741 C4.77777778,34.0740741 4.44444444,33.7407407 4.44444444,33.3333333 C4.44444444,32.9259259 4.77777778,32.5925926 5.18518519,32.5925926 L25.9259259,32.5925926 C26.3333333,32.5925926 26.6666667,32.9259259 26.6666667,33.3333333 Z" id="Shape"></path>
            </g>
        </g>
    </g>
</svg>