<?xml version="1.0" encoding="UTF-8"?>
<svg width="24px" height="24px" viewBox="0 0 24 24" version="1.1" xmlns="http://www.w3.org/2000/svg" xmlns:xlink="http://www.w3.org/1999/xlink">
    <title>63285EF7-D40A-475A-8946-228941E3B6EC</title>
    <g id="Page-1" stroke="none" stroke-width="1" fill="none" fill-rule="evenodd">
        <g id="AhaGuru" transform="translate(-26.000000, -532.000000)">
            <g id="groups_black_24dp" transform="translate(26.000000, 532.000000)">
                <rect id="Rectangle" x="0" y="0" width="24" height="24"></rect>
                <g id="Group" opacity="0.3" transform="translate(8.070000, 8.000000)" fill="#4EA0FC" fill-rule="nonzero">
                    <path d="M0,8 C0.09,7.77 0.13,7.61 0.91,7.31 C1.88,6.93 2.9,6.75 3.93,6.75 C4.96,6.75 5.98,6.93 6.95,7.31 C7.72,7.61 7.76,7.77 7.86,8 L0,8 Z M3.93,0 C4.48,0 4.93,0.45 4.93,1 C4.93,1.55 4.48,2 3.93,2 C3.38,2 2.93,1.55 2.93,1 C2.93,0.45 3.38,0 3.93,0" id="Shape"></path>
                </g>
                <path d="M4,13 C5.1,13 6,12.1 6,11 C6,9.9 5.1,9 4,9 C2.9,9 2,9.9 2,11 C2,12.1 2.9,13 4,13 Z M5.13,14.1 C4.76,14.04 4.39,14 4,14 C3.01,14 2.07,14.21 1.22,14.58 C0.48,14.9 0,15.62 0,16.43 L0,18 L4.5,18 L4.5,16.39 C4.5,15.56 4.73,14.78 5.13,14.1 Z M20,13 C21.1,13 22,12.1 22,11 C22,9.9 21.1,9 20,9 C18.9,9 18,9.9 18,11 C18,12.1 18.9,13 20,13 Z M24,16.43 C24,15.62 23.52,14.9 22.78,14.58 C21.93,14.21 20.99,14 20,14 C19.61,14 19.24,14.04 18.87,14.1 C19.27,14.78 19.5,15.56 19.5,16.39 L19.5,18 L24,18 L24,16.43 Z M16.24,13.65 C15.07,13.13 13.63,12.75 12,12.75 C10.37,12.75 8.93,13.14 7.76,13.65 C6.68,14.13 6,15.21 6,16.39 L6,18 L18,18 L18,16.39 C18,15.21 17.32,14.13 16.24,13.65 Z M8.07,16 C8.16,15.77 8.2,15.61 8.98,15.31 C9.95,14.93 10.97,14.75 12,14.75 C13.03,14.75 14.05,14.93 15.02,15.31 C15.79,15.61 15.83,15.77 15.93,16 L8.07,16 Z M12,8 C12.55,8 13,8.45 13,9 C13,9.55 12.55,10 12,10 C11.45,10 11,9.55 11,9 C11,8.45 11.45,8 12,8 M12,6 C10.34,6 9,7.34 9,9 C9,10.66 10.34,12 12,12 C13.66,12 15,10.66 15,9 C15,7.34 13.66,6 12,6 L12,6 Z" id="Shape" fill="#4EA0FC" fill-rule="nonzero"></path>
            </g>
        </g>
    </g>
</svg>