<?xml version="1.0" encoding="UTF-8"?>
<svg width="40px" height="32px" viewBox="0 0 40 32" version="1.1" xmlns="http://www.w3.org/2000/svg" xmlns:xlink="http://www.w3.org/1999/xlink">
    <title>97D91D9F-FC2A-464A-9B84-D254840EEE54</title>
    <g id="Page-1" stroke="none" stroke-width="1" fill="none" fill-rule="evenodd">
        <g id="AhaGuru-1-Chemistry" transform="translate(-65.000000, -245.000000)" fill="#4EA0FC" fill-rule="nonzero">
            <g id="Group" transform="translate(65.000000, 245.000000)">
                <path d="M39.3939394,0 L0.606060606,0 C0.272727273,0 0,0.272727273 0,0.606060606 L0,22.9454545 C0,23.2787879 0.272727273,23.5515152 0.606060606,23.5515152 L6.44848485,23.5515152 C6.74545455,24.8181818 7.91515152,26.030303 9.41818182,26.030303 L15.9272727,26.030303 L14.9878788,30.2484848 L12.6121212,30.2484848 C12.2787879,30.2484848 12.0060606,30.5212121 12.0060606,30.8545455 C12.0060606,31.1878788 12.2787879,31.4606061 12.6121212,31.4606061 L27.3818182,31.4606061 C27.7151515,31.4606061 27.9878788,31.1878788 27.9878788,30.8545455 C27.9878788,30.5212121 27.7151515,30.2484848 27.3818182,30.2484848 L25.0060606,30.2484848 L24.0666667,26.030303 L30.5757576,26.030303 C32.0787879,26.030303 33.2484848,24.8181818 33.5454545,23.5515152 L39.3939394,23.5515152 C39.7272727,23.5515152 40,23.2787879 40,22.9454545 L40,0.606060606 C40,0.272727273 39.7272727,0 39.3939394,0 Z M38.7878788,11.169697 L35.6909091,11.169697 L35.6909091,10.4060606 C35.6909091,8.80606061 34.3878788,7.50909091 32.7939394,7.50909091 L27.9030303,7.50909091 C26.3030303,7.50909091 25.0060606,8.81212121 25.0060606,10.4060606 L25.0060606,11.169697 L20.6060606,11.169697 L20.6060606,1.21212121 L38.7878788,1.21212121 L38.7878788,11.169697 Z M26.2181818,11.169697 L26.2181818,10.4060606 C26.2181818,9.47878788 26.9757576,8.72121212 27.9030303,8.72121212 L32.7939394,8.72121212 C33.7212121,8.72121212 34.4787879,9.47878788 34.4787879,10.4060606 L34.4787879,11.169697 L26.2181818,11.169697 Z M19.3939394,1.21212121 L19.3939394,11.169697 L15.6969697,11.169697 L15.6969697,10.4060606 C15.6969697,8.80606061 14.3939394,7.50909091 12.8,7.50909091 L7.90909091,7.50909091 C6.30909091,7.50909091 5.01212121,8.81212121 5.01212121,10.4060606 L5.01212121,11.169697 L1.21212121,11.169697 L1.21212121,1.21212121 L19.3939394,1.21212121 Z M6.22424242,11.169697 L6.22424242,10.4060606 C6.22424242,9.47878788 6.98181818,8.72121212 7.90909091,8.72121212 L12.8,8.72121212 C13.7272727,8.72121212 14.4848485,9.47878788 14.4848485,10.4060606 L14.4848485,11.169697 L6.22424242,11.169697 Z M1.21212121,12.3818182 L19.3939394,12.3818182 L19.3939394,22.3393939 L15.6969697,22.3393939 L15.6969697,21.5757576 C15.6969697,19.9757576 14.3939394,18.6787879 12.8,18.6787879 L7.90909091,18.6787879 C6.30909091,18.6787879 5.01212121,19.9818182 5.01212121,21.5757576 L5.01212121,22.3393939 L1.21212121,22.3393939 L1.21212121,12.3818182 Z M6.22424242,22.3393939 L6.22424242,21.5757576 C6.22424242,20.6484848 6.98181818,19.8909091 7.90909091,19.8909091 L12.8,19.8909091 C13.7272727,19.8909091 14.4848485,20.6484848 14.4848485,21.5757576 L14.4848485,22.3393939 L6.22424242,22.3393939 Z M23.769697,30.2545455 L16.230303,30.2545455 L17.169697,26.0363636 L22.830303,26.0363636 L23.769697,30.2545455 Z M30.5818182,24.8181818 L9.41818182,24.8181818 C8.64242424,24.8181818 7.98181818,24.2121212 7.71515152,23.5515152 L32.2848485,23.5515152 C32.0181818,24.2181818 31.3575758,24.8181818 30.5818182,24.8181818 Z M34.4787879,22.3393939 L26.2181818,22.3393939 L26.2181818,21.5757576 C26.2181818,20.6484848 26.9757576,19.8909091 27.9030303,19.8909091 L32.7939394,19.8909091 C33.7212121,19.8909091 34.4787879,20.6484848 34.4787879,21.5757576 L34.4787879,22.3393939 Z M35.6909091,22.3393939 L35.6909091,21.5757576 C35.6909091,19.9757576 34.3878788,18.6787879 32.7939394,18.6787879 L27.9030303,18.6787879 C26.3030303,18.6787879 25.0060606,19.9818182 25.0060606,21.5757576 L25.0060606,22.3393939 L20.6060606,22.3393939 L20.6060606,12.3818182 L38.7878788,12.3818182 L38.7878788,22.3393939 L35.6909091,22.3393939 Z" id="Shape"></path>
                <path d="M10.3575758,6.64242424 C11.6363636,6.64242424 12.6787879,5.6 12.6787879,4.32121212 C12.6787879,3.03636364 11.6363636,1.99393939 10.3575758,1.99393939 C9.07272727,1.99393939 8.03030303,3.03636364 8.03030303,4.32121212 C8.03030303,5.60606061 9.07272727,6.64242424 10.3575758,6.64242424 Z M10.3575758,3.20606061 C10.969697,3.20606061 11.4666667,3.70909091 11.4666667,4.32121212 C11.4666667,4.93333333 10.969697,5.43030303 10.3575758,5.43030303 C9.73939394,5.43030303 9.24242424,4.93333333 9.24242424,4.32121212 C9.24242424,3.70909091 9.74545455,3.20606061 10.3575758,3.20606061 Z" id="Shape"></path>
                <path d="M10.3575758,17.8121212 C11.6363636,17.8121212 12.6787879,16.769697 12.6787879,15.4909091 C12.6787879,14.2060606 11.6363636,13.1636364 10.3575758,13.1636364 C9.07272727,13.1636364 8.03030303,14.2060606 8.03030303,15.4909091 C8.03030303,16.769697 9.07272727,17.8121212 10.3575758,17.8121212 Z M10.3575758,14.3757576 C10.969697,14.3757576 11.4666667,14.8787879 11.4666667,15.4909091 C11.4666667,16.1030303 10.969697,16.6 10.3575758,16.6 C9.73939394,16.6 9.24242424,16.1030303 9.24242424,15.4909091 C9.24242424,14.8787879 9.74545455,14.3757576 10.3575758,14.3757576 Z" id="Shape"></path>
                <path d="M30.3515152,6.64242424 C31.630303,6.64242424 32.6727273,5.6 32.6727273,4.32121212 C32.6727273,3.03636364 31.630303,1.99393939 30.3515152,1.99393939 C29.0666667,1.99393939 28.0242424,3.03636364 28.0242424,4.32121212 C28.0242424,5.60606061 29.0666667,6.64242424 30.3515152,6.64242424 Z M30.3515152,3.20606061 C30.9636364,3.20606061 31.4606061,3.70909091 31.4606061,4.32121212 C31.4606061,4.93333333 30.9636364,5.43030303 30.3515152,5.43030303 C29.7333333,5.43030303 29.2363636,4.93333333 29.2363636,4.32121212 C29.2363636,3.70909091 29.7333333,3.20606061 30.3515152,3.20606061 Z" id="Shape"></path>
                <path d="M30.3515152,13.1636364 C29.0666667,13.1636364 28.0242424,14.2060606 28.0242424,15.4909091 C28.0242424,16.769697 29.0666667,17.8121212 30.3515152,17.8121212 C31.630303,17.8121212 32.6727273,16.769697 32.6727273,15.4909091 C32.6727273,14.2060606 31.630303,13.1636364 30.3515152,13.1636364 Z M30.3515152,16.6 C29.7333333,16.6 29.2363636,16.1030303 29.2363636,15.4909091 C29.2363636,14.8727273 29.7393939,14.3757576 30.3515152,14.3757576 C30.9636364,14.3757576 31.4606061,14.8787879 31.4606061,15.4909091 C31.4606061,16.1030303 30.9636364,16.6 30.3515152,16.6 Z" id="Shape"></path>
            </g>
        </g>
    </g>
</svg>