<?xml version="1.0" encoding="UTF-8"?>
<svg width="36px" height="34px" viewBox="0 0 36 34" version="1.1" xmlns="http://www.w3.org/2000/svg" xmlns:xlink="http://www.w3.org/1999/xlink">
    <title>7C4B7A42-C5DF-411E-BC23-B95057FAA77E</title>
    <g id="Page-1" stroke="none" stroke-width="1" fill="none" fill-rule="evenodd">
        <g id="AhaGuru-1-Chemistry" transform="translate(-65.000000, -373.000000)" fill="#4EA0FC" fill-rule="nonzero">
            <path d="M94.0988357,385.113075 L88.9409872,382.53415 C89.3738556,381.654282 89.6237643,380.668803 89.6237643,379.623764 C89.6237643,375.971339 86.6522258,373 83,373 C79.3477742,373 76.3762357,375.971339 76.3762357,379.623764 C76.3762357,380.668803 76.6261444,381.654282 77.0590128,382.53415 L71.9011643,385.113075 C69.785212,384.576486 67.6276869,384.209447 65.6763086,384.209447 L65,384.209447 L68.0513998,394.832374 C66.9409789,395.437454 66.185829,396.615397 66.185829,397.966496 C66.185829,399.933125 67.7856432,401.533139 69.7524713,401.533139 C69.8269091,401.533139 69.899655,401.526496 69.9729732,401.521968 L71.4478206,406.656405 L71.95137,406.48902 C71.9780402,406.480263 74.6363034,405.609301 77.8291648,405.609301 C79.6924966,405.609301 81.3687389,405.901679 82.8109202,406.47867 L83,406.554302 L83.1890798,406.47867 C84.6312612,405.901678 86.3075035,405.609301 88.1708353,405.609301 C91.3632986,405.609301 94.0219598,406.480263 94.04863,406.48902 L94.5525775,406.656405 L96.0273254,401.521968 C96.100544,401.526471 96.1732154,401.533139 96.2475287,401.533139 C98.2143568,401.533139 99.814171,399.933125 99.814171,397.966496 C99.814171,396.615471 99.0590709,395.437554 97.9487494,394.832449 L101,384.209447 L100.323691,384.209447 C98.3723131,384.209447 96.214788,384.576486 94.0988357,385.113075 Z M83,374.019041 C86.0905593,374.019041 88.6047237,376.533404 88.6047237,379.623764 C88.6047237,382.714125 86.0905593,385.228488 83,385.228488 C79.9094407,385.228488 77.3952763,382.714125 77.3952763,379.623764 C77.3952763,376.533404 79.9094407,374.019041 83,374.019041 Z M69.7524713,400.514098 C69.7288363,400.514098 69.7059228,400.511187 69.6824371,400.51054 C68.3102153,400.472973 67.2048696,399.347625 67.2048696,397.966496 C67.2048696,397.082847 67.6575167,396.303415 68.3426574,395.846315 C68.6247346,395.65813 68.9465186,395.526123 69.2922361,395.462706 C69.4417584,395.435265 69.595137,395.418895 69.7524713,395.418895 C71.1572348,395.418895 72.300073,396.561733 72.300073,397.966496 C72.300073,399.039624 71.6321983,399.95798 70.6910784,400.332681 C70.4002189,400.448492 70.0841073,400.514098 69.7524713,400.514098 Z M82.4904797,405.280551 C81.0959663,404.823028 79.5328236,404.590261 77.8291647,404.590261 C75.274796,404.590261 73.0914217,405.105354 72.1380614,405.370265 L70.9728073,401.313532 C72.3394066,400.813566 73.3191136,399.504014 73.3191136,397.966496 C73.3191136,395.999867 71.7192994,394.399854 69.7524713,394.399854 C69.4976614,394.399854 69.2494444,394.427843 69.0096364,394.47887 L66.356996,385.243813 C72.5789408,385.516536 80.8713843,389.356399 82.4904797,390.133044 L82.4904797,405.280551 Z M83,389.246335 C81.9866069,388.753508 77.9187289,386.836637 73.3758127,385.515019 L77.5764446,383.41469 C78.7754346,385.124743 80.7576627,386.247529 83,386.247529 C85.2423373,386.247529 87.2245654,385.124743 88.4235554,383.41469 L92.6241873,385.515019 C88.0812711,386.836637 84.0133931,388.753508 83,389.246335 Z M98.7951304,397.966496 C98.7951304,399.347525 97.689934,400.472824 96.3178614,400.51054 C96.2942762,400.511187 96.2712632,400.514098 96.2475287,400.514098 C95.9158927,400.514098 95.5997811,400.448492 95.3089216,400.332681 C94.3678017,399.957979 93.699927,399.039624 93.699927,397.966496 C93.699927,396.561733 94.8427652,395.418895 96.2475287,395.418895 C96.404863,395.418895 96.5582416,395.435265 96.7077639,395.462706 C97.053556,395.526148 97.3754147,395.65818 97.6575168,395.846414 C98.3425828,396.303539 98.7951304,397.082921 98.7951304,397.966496 Z M96.9903636,394.478869 C96.7505556,394.427843 96.5023386,394.399854 96.2475287,394.399854 C94.2807006,394.399854 92.6808864,395.999867 92.6808864,397.966496 C92.6808864,399.504014 93.6605934,400.813566 95.0271927,401.313532 L93.8619386,405.370265 C92.9085783,405.105354 90.725204,404.590261 88.1708353,404.590261 C86.4671764,404.590261 84.9040337,404.823028 83.5095203,405.280551 L83.5095203,390.133019 C85.1283172,389.356225 93.4182976,385.516337 99.643004,385.243813 L96.9903636,394.478869 Z" id="Shape"></path>
        </g>
    </g>
</svg>