<?xml version="1.0" encoding="UTF-8"?>
<svg width="24px" height="24px" viewBox="0 0 24 24" version="1.1" xmlns="http://www.w3.org/2000/svg" xmlns:xlink="http://www.w3.org/1999/xlink">
    <title>673262CE-DCF9-48DB-B543-0818541D3765</title>
    <g id="Page-1" stroke="none" stroke-width="1" fill="none" fill-rule="evenodd">
        <g id="AhaGuru" transform="translate(-26.000000, -488.000000)">
            <g id="local_library_black_24dp-2" transform="translate(26.000000, 488.000000)">
                <polygon id="Path" points="0 0 24 0 24 24 0 24"></polygon>
                <path d="M19,17.13 L19,10.18 C16.9,10.56 14.95,11.53 13.36,13.01 L12,14.28 L10.64,13.01 C9.05,11.53 7.1,10.56 5,10.18 L5,17.13 C7.53,17.47 9.94,18.43 12,19.96 C14.07,18.44 16.47,17.47 19,17.13 L19,17.13 Z" id="Path" fill="#3794FC" fill-rule="nonzero" opacity="0.3"></path>
                <circle id="Oval" fill="#3794FC" fill-rule="nonzero" opacity="0.3" cx="12" cy="5" r="2"></circle>
                <path d="M16,5 C16,2.79 14.21,1 12,1 C9.79,1 8,2.79 8,5 C8,7.21 9.79,9 12,9 C14.21,9 16,7.21 16,5 Z M10,5 C10,3.9 10.9,3 12,3 C13.1,3 14,3.9 14,5 C14,6.1 13.1,7 12,7 C10.9,7 10,6.1 10,5 Z M3,19 C6.48,19 9.64,20.35 12,22.55 C14.36,20.36 17.52,19 21,19 L21,8 C17.52,8 14.36,9.35 12,11.55 C9.64,9.35 6.48,8 3,8 L3,19 Z M5,10.18 C7.1,10.56 9.05,11.53 10.64,13.01 L12,14.28 L13.36,13.01 C14.95,11.53 16.9,10.56 19,10.18 L19,17.13 C16.47,17.47 14.07,18.43 12,19.95 C9.94,18.43 7.53,17.46 5,17.12 L5,10.18 L5,10.18 Z" id="Shape" fill="#3794FC" fill-rule="nonzero"></path>
            </g>
        </g>
    </g>
</svg>