<?xml version="1.0" encoding="UTF-8"?>
<svg width="97px" height="24px" viewBox="0 0 97 24" version="1.1" xmlns="http://www.w3.org/2000/svg" xmlns:xlink="http://www.w3.org/1999/xlink">
    <title>548042E9-F41C-4AE4-ACC6-4484C5287278</title>
    <defs>
        <polygon id="path-1" points="0 0 21.4907525 0 21.4907525 24 0 24"></polygon>
    </defs>
    <g id="Page-1" stroke="none" stroke-width="1" fill="none" fill-rule="evenodd">
        <g id="AhaGuru" transform="translate(-20.000000, -18.000000)">
            <g id="Group-16" transform="translate(20.000000, 18.000000)">
                <g id="Group-3">
                    <mask id="mask-2" fill="white">
                        <use xlink:href="#path-1"></use>
                    </mask>
                    <g id="Clip-2"></g>
                    <path d="M21.4578049,0.788639631 C21.4370798,0.596268253 21.4062579,0.439501523 21.3679962,0.324184979 C21.3318601,0.205679959 21.2856272,0.121185348 21.2266404,0.0776095114 C21.1697793,0.028719548 21.1081354,0.00268032838 21.0363947,0.00268032838 L7.46836703,0.00268032838 C7.42213413,0.000554677798 7.3450793,-0.00210238543 7.23720253,0.00268032838 L7.19096963,0.00268032838 C7.18618692,0.00268032838 7.18087279,0.00533739161 7.17343302,0.00533739161 C7.13729696,0.00799445483 7.1011609,0.0106515181 7.06024212,0.0133085813 C6.36674862,0.0776095114 5.04671961,0.531967323 4.0965538,2.14214764 C2.75845676,4.4096854 4.41752704,4.59249135 4.6848276,4.31509395 C4.93884284,4.05045045 6.29235085,3.13376363 7.24251666,3.04129783 L10.7710966,3.04129783 C10.4607516,4.4309419 8.4546689,12.8570208 4.22462425,18.4198484 C4.22462425,18.4198484 3.43388223,19.3933963 2.6298549,19.3290954 L2.62719784,19.3338781 C2.5246352,19.3211242 2.42207255,19.310496 2.31632144,19.310496 C1.03774261,19.310496 -0.000106282529,20.3488763 -0.000106282529,21.6274551 C-0.000106282529,22.7423588 0.788510083,23.672331 1.83645582,23.8928672 C8.47007987,25.649186 12.1889056,5.28067072 12.5768368,3.04129783 L16.2542123,3.04129783 C16.1362387,3.40850397 15.3938552,5.82271162 15.1552509,9.35394865 L12.4944678,9.35394865 C12.4200701,9.35394865 12.3584262,9.37414233 12.3020965,9.42037523 C12.2452353,9.46713954 12.1990024,9.53090906 12.1580836,9.62603192 C12.1171649,9.71637207 12.089,9.83912839 12.0682749,9.99323806 C12.0475498,10.1446907 12.04011,10.3349364 12.04011,10.5613182 C12.04011,10.9922938 12.0757147,11.3031702 12.1580836,11.4827877 C12.2351385,11.6655937 12.350455,11.7554024 12.4944678,11.7554024 L15.0829788,11.7554024 C15.0936071,13.376211 15.2296487,15.1479407 15.5660329,17.0073536 C15.5660329,17.0073536 15.6739097,18.193998 16.3466781,18.2375738 C17.0221036,18.2811497 17.9084999,18.0345742 18.3474467,17.8522997 C18.786925,17.6700251 19.166885,17.3022876 19.0101183,16.8814088 C19.0101183,16.8814088 16.8913761,11.6884444 18.2804887,3.04129783 L21.0363947,3.04129783 C21.1081354,3.04129783 21.1697793,3.02057274 21.2266404,2.97168278 C21.2829702,2.92332423 21.3318601,2.84042385 21.3679962,2.72563872 C21.4062579,2.6071337 21.4370798,2.45302404 21.4578049,2.26065266 C21.47853,2.06774987 21.4907525,1.82383146 21.4907525,1.52358332 C21.4886269,1.22546083 21.47853,0.976759707 21.4578049,0.788639631" id="Fill-1" fill="#4EA0FC" mask="url(#mask-2)"></path>
                </g>
                <path d="M30.5517632,17.5390319 C30.4412294,17.5028959 30.3593919,17.4492232 30.3078448,17.3902364 C30.2616119,17.3285925 30.2387612,17.2589775 30.2387612,17.1766085 L30.2387612,11.0361354 C30.2387612,10.5121625 30.2026251,10.1066947 30.1229132,9.8059151 C30.0458584,9.51098108 29.9379816,9.25377736 29.7891861,9.04068089 C29.6451733,8.82971007 29.4602417,8.66550357 29.2290772,8.54752996 C29.0032268,8.431682 28.7359262,8.37535226 28.4255812,8.37535226 C28.0424327,8.37535226 27.6523758,8.51617661 27.2570048,8.79676249 C26.8664165,9.08159967 26.4529775,9.48759893 26.0267846,10.0264514 L26.0267846,17.1792656 C26.0267846,17.2616345 26.0060595,17.3307182 25.9571695,17.3928934 C25.9082795,17.4492232 25.826442,17.5028959 25.710594,17.541689 C25.5926204,17.5826078 25.4385108,17.6107726 25.2461394,17.6314977 C25.0532366,17.6516914 24.8093182,17.6644453 24.5085386,17.6644453 C24.2136046,17.6644453 23.9643721,17.6522228 23.7767834,17.6314977 C23.584412,17.6107726 23.4276453,17.5826078 23.3117974,17.541689 C23.1938238,17.5055529 23.1093291,17.4513488 23.0657533,17.3928934 C23.0163319,17.3307182 22.9908241,17.2616345 22.9908241,17.1792656 L22.9908241,1.31553527 C22.9908241,1.23316631 23.0163319,1.16408266 23.0657533,1.09712467 C23.1119862,1.03069809 23.1938238,0.979151064 23.3117974,0.935043815 C23.4276453,0.888810914 23.584412,0.857988981 23.7767834,0.832481174 C23.9670292,0.806973367 24.2136046,0.796345114 24.5085386,0.796345114 C24.8093182,0.796345114 25.0532366,0.80963043 25.2461394,0.832481174 C25.4385108,0.857988981 25.5926204,0.888810914 25.710594,0.935043815 C25.826442,0.976494001 25.9082795,1.03069809 25.9571695,1.09712467 C26.0060595,1.16408266 26.0267846,1.23316631 26.0267846,1.31553527 L26.0267846,7.26310559 C26.5507574,6.74976098 27.0848271,6.36448681 27.6289937,6.10994015 C28.1683775,5.85858197 28.7359262,5.72998011 29.321543,5.72998011 C30.0538296,5.72998011 30.6723939,5.84848513 31.1756417,6.09240354 C31.6794209,6.33632194 32.0848887,6.66473496 32.3957651,7.08083106 C32.7039845,7.50224129 32.9277092,7.98742103 33.0637508,8.54752996 C33.2024495,9.10763889 33.2688761,9.78253295 33.2688761,10.5812462 L33.2688761,17.1766085 L33.266219,17.1766085 C33.266219,17.2589775 33.2407112,17.3285925 33.1971354,17.3902364 C33.1482454,17.4465661 33.0658765,17.5007702 32.953217,17.5390319 C32.8426832,17.5799507 32.6859164,17.6081156 32.4882309,17.6288407 C32.2905454,17.6495657 32.046627,17.6617882 31.7586014,17.6617882 C31.4636673,17.6617882 31.2144348,17.6495657 31.0167493,17.6288407 C30.8190638,17.6081156 30.6622971,17.5799507 30.5517632,17.5390319" id="Fill-4" fill="#4EA0FC"></path>
                <path d="M42.4377105,12.6078946 L41.2792309,12.6078946 C40.788737,12.6078946 40.3699838,12.6434992 40.0235028,12.7157713 C39.6770218,12.7901691 39.3969673,12.8980459 39.1785567,13.0415273 C38.9601461,13.1908542 38.8039108,13.3630319 38.7008167,13.5686886 C38.6035682,13.7738139 38.5520212,14.0076355 38.5520212,14.272279 C38.5520212,14.7239797 38.693377,15.0784319 38.9808712,15.3356357 C39.2657084,15.594965 39.6610794,15.7230355 40.1675156,15.7230355 C40.5963656,15.7230355 40.9869539,15.6151587 41.3461889,15.3967481 C41.7059552,15.1788689 42.0678473,14.8626784 42.4377105,14.4412682 L42.4377105,12.6078946 Z M45.4194668,17.2152422 C45.4194668,17.3310901 45.378548,17.4182418 45.2961791,17.4825428 C45.2191242,17.5441866 45.0905224,17.5904195 44.916219,17.6185844 C44.7440413,17.6467493 44.4868376,17.6648173 44.1509848,17.6648173 C43.7885614,17.6648173 43.5239179,17.6494063 43.3597114,17.6185844 C43.1955049,17.5904195 43.0796569,17.5441866 43.0105733,17.4825428 C42.9436153,17.4155848 42.9074792,17.3310901 42.9074792,17.2152422 L42.9074792,16.3601992 C42.4658753,16.8326251 41.9599705,17.2046139 41.3950788,17.4719145 C40.8275301,17.736558 40.1956805,17.8672855 39.5048441,17.8672855 C38.9319812,17.8672855 38.4080084,17.7934192 37.9302684,17.6446236 C37.4525284,17.4952967 37.0364323,17.274229 36.6872942,16.9814206 C36.3381561,16.6891437 36.0660728,16.3240632 35.870513,15.8904305 C35.6781416,15.4530779 35.5830187,14.947173 35.5830187,14.3695275 C35.5830187,13.7376778 35.7063065,13.1956369 35.9502249,12.7333079 C36.1968003,12.2688533 36.5640065,11.8883618 37.0491862,11.5854566 C37.5348974,11.2852085 38.1412392,11.0620152 38.8650232,10.9180023 C39.5893387,10.7745209 40.4295021,10.6995917 41.384982,10.6995917 L42.4350534,10.6995917 L42.4350534,10.0502055 C42.4350534,9.71382129 42.4015744,9.4156988 42.3324907,9.16434062 C42.2655328,8.90979396 42.1496848,8.69935455 41.9934495,8.5293025 C41.8366828,8.36031328 41.6262433,8.23649414 41.366914,8.15465659 C41.1022705,8.07228763 40.7812972,8.03615157 40.3960231,8.03615157 C39.8901182,8.03615157 39.435229,8.09035566 39.0372009,8.20620362 C38.6418299,8.31620603 38.2873777,8.43949377 37.9844725,8.58084953 C37.6783788,8.71689117 37.4243636,8.8401789 37.2192383,8.95071273 C37.0135816,9.06656069 36.8488437,9.12023337 36.7154591,9.12023337 C36.6283074,9.12023337 36.5512526,9.09472556 36.4816375,9.03786441 C36.4152109,8.98153467 36.3588812,8.90182277 36.3126483,8.793946 C36.2711981,8.69138336 36.2355935,8.56331291 36.2095542,8.41186031 C36.1840464,8.25509358 36.1760753,8.08504153 36.1760753,7.90064135 C36.1760753,7.65406588 36.1920176,7.45638037 36.2329364,7.31183613 C36.2738552,7.16835472 36.35091,7.03762721 36.4641009,6.92177925 C36.5741033,6.80380565 36.7723202,6.67520379 37.0518433,6.53384802 C37.3372119,6.39568073 37.6661563,6.26176475 38.0434593,6.14379114 C38.4186366,6.02050341 38.8342013,5.92538054 39.2789937,5.84832571 C39.7232547,5.77127088 40.1855837,5.73247775 40.6580095,5.73247775 C41.5029556,5.73247775 42.227271,5.81484671 42.8251103,5.97905322 C43.426138,6.14379114 43.9171633,6.40046345 44.3045631,6.74216178 C44.6924943,7.0833287 44.9725488,7.52546402 45.1500406,8.06431644 C45.327001,8.59891756 45.4168097,9.2435211 45.4168097,9.98059044 L45.4168097,17.2152422 L45.4194668,17.2152422 Z" id="Fill-6" fill="#4EA0FC"></path>
                <path d="M61.1523633,4.40213934 C61.1523633,4.63383525 61.1449235,4.8336464 61.1241984,5.00316704 C61.1034733,5.17268767 61.0753085,5.30872931 61.0370468,5.40650924 C61.0009107,5.50907188 60.9599919,5.57868693 60.9057878,5.61960571 C60.8521152,5.66052448 60.7904713,5.67593545 60.7208562,5.67593545 C60.6129795,5.67593545 60.4461159,5.6068518 60.2149514,5.46283898 C59.9811298,5.31404344 59.6702534,5.15727671 59.2828536,4.99041313 C58.8949224,4.8208925 58.4352504,4.66412577 57.9038378,4.52064436 C57.3665796,4.37663153 56.7453582,4.30223376 56.0364538,4.30223376 C55.2786593,4.30223376 54.5957941,4.43349268 53.9846695,4.69813618 C53.3703565,4.95693414 52.8469151,5.32679734 52.415408,5.80453731 C51.9839009,6.28227728 51.6448597,6.85992282 51.4136952,7.53056558 C51.1798736,8.20067692 51.0645571,8.94306039 51.0645571,9.75984163 C51.0645571,10.6483636 51.1825307,11.4364485 51.4190093,12.1150625 C51.6576136,12.7952707 51.986558,13.3681335 52.415408,13.8251484 C52.844258,14.2826947 53.355477,14.6291757 53.9559733,14.8629973 C54.5522182,15.0962874 55.2175469,15.2121354 55.9365482,15.2121354 C56.2910004,15.2121354 56.6401385,15.1712166 56.9866196,15.0936303 C57.333632,15.0117928 57.6546053,14.8911621 57.9548534,14.7317383 L57.9548534,11.1106926 L54.9991363,11.1106926 C54.8551235,11.1106926 54.7398069,11.0208838 54.6627521,10.8380779 C54.5803831,10.6563348 54.5442471,10.347584 54.5442471,9.91660836 C54.5442471,9.69022657 54.5522182,9.50051226 54.5729433,9.34905965 C54.593137,9.19707563 54.6213019,9.0737879 54.6627521,8.9813221 C54.7036708,8.88619924 54.7499037,8.81977266 54.8062335,8.77566541 C54.8630946,8.72996392 54.9247385,8.70923883 54.9991363,8.70923883 L60.2718125,8.70923883 C60.399883,8.70923883 60.515731,8.72996392 60.6182936,8.77566541 C60.7160735,8.82189831 60.8085393,8.88619924 60.8829371,8.97388232 C60.9599919,9.06369106 61.0189787,9.17156783 61.0598975,9.29485556 C61.0960336,9.4181433 61.1167587,9.56215612 61.1167587,9.72370557 L61.1167587,15.9391079 C61.1167587,16.1777121 61.0753085,16.388683 60.9934709,16.5683004 C60.9057878,16.750575 60.7336101,16.8945878 60.4742808,16.9971504 C60.2101687,17.1044958 59.8865384,17.2102469 59.5012642,17.3255635 C59.113333,17.4360973 58.7153049,17.5312202 58.2992088,17.6130577 C57.8878954,17.6906439 57.4670166,17.7522878 57.0456064,17.7958636 C56.6220705,17.8367824 56.1985346,17.8527248 55.7696846,17.8527248 C54.526179,17.8527248 53.4091496,17.675233 52.4201907,17.3181237 C51.4365459,16.9583573 50.6048851,16.4396986 49.9214885,15.761616 C49.2386232,15.0814079 48.7146503,14.2539984 48.3522269,13.2783248 C47.9903349,12.2968056 47.8080604,11.1898731 47.8080604,9.94955594 C47.8080604,8.67310277 48.0004317,7.52259439 48.388363,6.506002 C48.7709801,5.4888782 49.3204608,4.623207 50.0267082,3.91164546 C50.7356126,3.20008393 51.5879985,2.65591738 52.5875857,2.27595734 C53.5914242,1.89546589 54.708985,1.7110657 55.9365482,1.7110657 C56.6167564,1.7110657 57.2310694,1.75676719 57.7858642,1.84657593 C58.3380019,1.94169879 58.8231817,2.05223262 59.2392778,2.18349154 C59.6500598,2.31421905 59.9970722,2.45823188 60.2691555,2.61234155 C60.5438958,2.76379415 60.7336101,2.89983579 60.8420183,3.01302668 C60.9520207,3.12356051 61.0317326,3.28510996 61.0806226,3.49076665 C61.1295126,3.69376628 61.1523633,3.99879714 61.1523633,4.40213934" id="Fill-8" fill="#4EA0FC"></path>
                <path d="M74.4021279,17.1767679 C74.4021279,17.2586055 74.3814028,17.3282205 74.3404841,17.3898644 C74.2995653,17.4467255 74.2299502,17.5003982 74.1300447,17.5391913 C74.0269506,17.5801101 73.8962231,17.608275 73.7288281,17.6290001 C73.5646216,17.6497252 73.3594963,17.6619477 73.1076067,17.6619477 C72.8429632,17.6619477 72.6245526,17.6497252 72.4603461,17.6290001 C72.2961396,17.608275 72.1675378,17.5801101 72.0702892,17.5391913 C71.9751664,17.5025239 71.9055513,17.4493826 71.8646325,17.3898644 C71.8284965,17.3282205 71.8083028,17.2586055 71.8083028,17.1767679 L71.8083028,15.9364508 C71.2099322,16.5783973 70.6062474,17.06092 69.9924658,17.3824246 C69.3733701,17.7033978 68.7388634,17.8649473 68.0815059,17.8649473 C67.3391225,17.8649473 66.7179011,17.7443166 66.2173104,17.5025239 C65.7135312,17.2639196 65.3080633,16.9355066 64.9971869,16.5140963 C64.6889676,16.0980002 64.4652429,15.6128205 64.3345154,15.0606828 C64.2037879,14.508545 64.1368299,13.8251484 64.1368299,13.0057101 L64.1368299,6.41566185 C64.1368299,6.33860702 64.157555,6.26420925 64.2037879,6.20522244 C64.2447066,6.14357857 64.3270756,6.09468861 64.4423921,6.05376984 C64.5603657,6.01231965 64.7171325,5.98415478 64.9126923,5.96342969 C65.1103778,5.94323601 65.3516392,5.93579623 65.6465732,5.93579623 C65.94257,5.93579623 66.1912711,5.94323601 66.3788598,5.96342969 C66.5717626,5.98415478 66.7279979,6.01231965 66.8438459,6.05376984 C66.9618195,6.09468861 67.0468455,6.14357857 67.0904213,6.20522244 C67.1393113,6.26155218 67.1648191,6.33648137 67.1648191,6.41566185 L67.1648191,12.4998052 C67.1648191,13.0599142 67.2009552,13.4935469 67.2726959,13.7890123 C67.3470936,14.0850091 67.4576275,14.34115 67.606423,14.5542465 C67.7552186,14.7678744 67.9428072,14.934738 68.1713147,15.0473974 C68.4024792,15.1685595 68.6697797,15.2248893 68.975342,15.2248893 C69.3632732,15.2248893 69.7485474,15.0861906 70.1412613,14.800822 C70.5318496,14.5212989 70.9479457,14.1078599 71.3895496,13.5711331 L71.3895496,6.41566185 C71.3895496,6.33860702 71.4150574,6.26420925 71.4565076,6.20522244 C71.5022091,6.14357857 71.5845781,6.09468861 71.700426,6.05376984 C71.8157426,6.01231965 71.9725093,5.98415478 72.1654121,5.96342969 C72.3577835,5.94323601 72.6017019,5.93579623 72.8971673,5.93579623 C73.1974155,5.93579623 73.4413339,5.94323601 73.6342367,5.96342969 C73.826608,5.98415478 73.9807177,6.01231965 74.0912515,6.05376984 C74.2065681,6.09468861 74.2836229,6.14357857 74.3351699,6.20522244 C74.3840599,6.26155218 74.4095677,6.33648137 74.4095677,6.41566185 L74.4095677,17.1767679 L74.4021279,17.1767679 Z" id="Fill-10" fill="#4EA0FC"></path>
                <path d="M84.3694629,7.4172684 C84.3694629,7.71060818 84.3614917,7.94389833 84.3439551,8.12882994 C84.3280127,8.31376154 84.3025049,8.45777436 84.2695573,8.56511972 C84.2408611,8.66821377 84.1946282,8.74261154 84.1462696,8.7787476 C84.0920655,8.81966637 84.0277646,8.84039147 83.94327,8.84039147 C83.8816261,8.84039147 83.8066969,8.82710615 83.7296421,8.79947269 C83.6478046,8.77077641 83.5579958,8.74261154 83.4575588,8.70966396 C83.3549962,8.67565355 83.2444624,8.64748868 83.1238317,8.61932381 C83.0058581,8.59115894 82.8719421,8.57840503 82.7231466,8.57840503 C82.5536259,8.57840503 82.3867623,8.61188403 82.2172417,8.67565355 C82.0477211,8.7452686 81.8755434,8.85314537 81.6932688,8.9971582 C81.5109943,9.14063961 81.3234056,9.33566805 81.1257201,9.57692939 C80.9280346,9.8165965 80.7170638,10.1168446 80.4912134,10.4659827 L80.4912134,17.1740046 C80.4912134,17.2563735 80.4710198,17.3259886 80.4221298,17.3876325 C80.3732398,17.4439622 80.2908709,17.4981663 80.1755543,17.536428 C80.0570493,17.5773468 79.9034711,17.6055116 79.7105683,17.6262367 C79.5181969,17.6469618 79.2742785,17.6591843 78.9734989,17.6591843 C78.6780335,17.6591843 78.428801,17.6469618 78.2417437,17.6262367 C78.0488409,17.6055116 77.8926056,17.5773468 77.7767576,17.536428 C77.658784,17.5002919 77.573758,17.4466193 77.5301822,17.3876325 C77.4812922,17.3259886 77.4557844,17.2563735 77.4557844,17.1740046 L77.4557844,6.4128985 C77.4557844,6.33637508 77.4759781,6.2614459 77.5174283,6.20299051 C77.5583471,6.14134664 77.6274307,6.09245668 77.7358389,6.0515379 C77.8384015,6.01008772 77.9744432,5.98192285 78.1386497,5.96119776 C78.3028562,5.94100407 78.5085129,5.93303288 78.7604025,5.93303288 C79.0170748,5.93303288 79.2301712,5.94100407 79.3996919,5.96119776 C79.5692125,5.98192285 79.7004714,6.01008772 79.7902802,6.0515379 C79.885403,6.09245668 79.9518296,6.14134664 79.9879657,6.20299051 C80.0294159,6.25878884 80.0496095,6.33371802 80.0496095,6.4128985 L80.0496095,7.75152696 C80.329664,7.35084182 80.5964331,7.01924033 80.8456657,6.75991096 C81.0975553,6.49579888 81.3361595,6.29014218 81.5572272,6.13868958 C81.7830776,5.98723697 82.011585,5.8788288 82.2326527,5.81718493 C82.4585031,5.75554106 82.6848848,5.72737619 82.9080782,5.72737619 C83.0159549,5.72737619 83.1264887,5.73534738 83.2444624,5.74810128 C83.3677501,5.75554106 83.4910378,5.77626615 83.6196397,5.80443102 C83.7482415,5.83312731 83.8635581,5.86607489 83.9560239,5.90221095 C84.0532724,5.93568995 84.1255445,5.97660872 84.1691204,6.01221337 C84.2100391,6.05366356 84.2435181,6.09989646 84.2642432,6.14878642 C84.2844369,6.19501932 84.3003793,6.25878884 84.3179159,6.34647192 C84.3333269,6.42884088 84.3466122,6.55691133 84.354052,6.72643196 C84.3641488,6.89860966 84.3694629,7.12977416 84.3694629,7.4172684" id="Fill-12" fill="#4EA0FC"></path>
                <path d="M96.4476752,17.1767679 C96.4476752,17.2586055 96.4269501,17.3282205 96.3860314,17.3898644 C96.3451126,17.4467255 96.2754975,17.5003982 96.175592,17.5391913 C96.0724979,17.5801101 95.9417704,17.608275 95.7775639,17.6290001 C95.6133574,17.6497252 95.4077007,17.6619477 95.1558111,17.6619477 C94.8911676,17.6619477 94.6732884,17.6497252 94.5090819,17.6290001 C94.344344,17.608275 94.2157421,17.5801101 94.1184936,17.5391913 C94.0233707,17.5025239 93.9542871,17.4493826 93.9128369,17.3898644 C93.8772323,17.3282205 93.8565072,17.2586055 93.8565072,17.1767679 L93.8565072,15.9364508 C93.2602622,16.5783973 92.6544518,17.06092 92.0406702,17.3824246 C91.4215744,17.7033978 90.7875991,17.8649473 90.1297103,17.8649473 C89.3878582,17.8649473 88.7661054,17.7443166 88.2628577,17.5025239 C87.7596099,17.2639196 87.3536106,16.9355066 87.0427342,16.5140963 C86.7345149,16.0980002 86.5113216,15.6128205 86.3800627,15.0606828 C86.2493352,14.508545 86.1823772,13.8251484 86.1823772,13.0057101 L86.1823772,6.41566185 C86.1823772,6.33860702 86.2031023,6.26420925 86.2493352,6.20522244 C86.2902539,6.14357857 86.3726229,6.09468861 86.4879394,6.05376984 C86.605913,6.01231965 86.7626798,5.98415478 86.9582396,5.96342969 C87.1559251,5.94323601 87.3971865,5.93579623 87.6899948,5.93579623 C87.9854603,5.93579623 88.2346928,5.94323601 88.4244071,5.96342969 C88.6173099,5.98415478 88.7740766,6.01231965 88.8893932,6.05376984 C89.0078982,6.09468861 89.0923928,6.14357857 89.1359686,6.20522244 C89.1848586,6.26155218 89.2103664,6.33648137 89.2103664,6.41566185 L89.2103664,12.4998052 C89.2103664,13.0599142 89.2465025,13.4935469 89.3182432,13.7890123 C89.392641,14.0850091 89.5031748,14.34115 89.6519703,14.5542465 C89.8012973,14.7678744 89.991543,14.934738 90.2173934,15.0473974 C90.4480265,15.1685595 90.715327,15.2248893 91.0214207,15.2248893 C91.4088205,15.2248893 91.7967518,15.0861906 92.1868086,14.800822 C92.5773969,14.5212989 92.993493,14.1078599 93.4350969,13.5711331 L93.4350969,6.41566185 C93.4350969,6.33860702 93.4606048,6.26420925 93.5020549,6.20522244 C93.5482878,6.14357857 93.6306568,6.09468861 93.7459733,6.05376984 C93.8612899,6.01231965 94.0180566,5.98415478 94.2109594,5.96342969 C94.4033308,5.94323601 94.6472492,5.93579623 94.9453717,5.93579623 C95.2456198,5.93579623 95.4900696,5.94323601 95.682441,5.96342969 C95.8748124,5.98415478 96.0289221,6.01231965 96.1394559,6.05376984 C96.2553039,6.09468861 96.3323587,6.14357857 96.3833743,6.20522244 C96.4322643,6.26155218 96.4583035,6.33648137 96.4583035,6.41566185 L96.4583035,17.1767679 L96.4476752,17.1767679 Z" id="Fill-14" fill="#4EA0FC"></path>
            </g>
        </g>
    </g>
</svg>