<?xml version="1.0" encoding="UTF-8"?>
<svg width="60px" height="52px" viewBox="0 0 60 52" version="1.1" xmlns="http://www.w3.org/2000/svg" xmlns:xlink="http://www.w3.org/1999/xlink">
    <title>1334F121-BDBA-41B9-A92C-0E4E23591409</title>
    <g id="Page-1" stroke="none" stroke-width="1" fill="none" fill-rule="evenodd" opacity="0.301598837">
        <g id="AhaGuru" transform="translate(-35.000000, -2776.000000)" fill="#3B96FC" fill-rule="nonzero">
            <g id="Group-9" transform="translate(-1.000000, 663.000000)">
                <g id="Group-5-Copy" transform="translate(0.000000, 2067.000000)">
                    <path d="M58.8,97.8 L58.8,75.6 L47,75.6 C47,73.3333333 47.1666667,71.0333333 47.5,68.7 C47.8333333,66.3666667 48.4666667,64.2666667 49.4,62.4 C50.3333333,60.5333333 51.5333333,59.0333333 53,57.9 C54.4666667,56.7666667 56.3333333,56.2 58.6,56.2 L58.6,46.2 C54.8666667,46.2 51.6,47 48.8,48.6 C46,50.2 43.7,52.3333333 41.9,55 C40.1,57.6666667 38.7666667,60.7666667 37.9,64.3 C37.0333333,67.8333333 36.6,71.6 36.6,75.6 L36.6,97.8 L58.8,97.8 Z M95.4,97.8 L95.4,75.6 L83.6,75.6 C83.6,73.3333333 83.7666667,71.0333333 84.1,68.7 C84.4333333,66.3666667 85.0666667,64.2666667 86,62.4 C86.9333333,60.5333333 88.1333333,59.0333333 89.6,57.9 C91.0666667,56.7666667 92.9333333,56.2 95.2,56.2 L95.2,46.2 C91.4666667,46.2 88.2,47 85.4,48.6 C82.6,50.2 80.3,52.3333333 78.5,55 C76.7,57.6666667 75.3666667,60.7666667 74.5,64.3 C73.6333333,67.8333333 73.2,71.6 73.2,75.6 L73.2,97.8 L95.4,97.8 Z" id="“"></path>
                </g>
            </g>
        </g>
    </g>
</svg>