<?xml version="1.0" encoding="UTF-8"?>
<svg width="36px" height="29px" viewBox="0 0 36 29" version="1.1" xmlns="http://www.w3.org/2000/svg" xmlns:xlink="http://www.w3.org/1999/xlink">
    <title>609A5AF8-87C5-431D-A1C6-789374D3101C</title>
    <g id="Page-1" stroke="none" stroke-width="1" fill="none" fill-rule="evenodd">
        <g id="Organic-Chemistry-Mobile" transform="translate(-22.000000, -1446.000000)" fill="#0782FC" fill-rule="nonzero">
            <g id="noun_exam_3492896" transform="translate(22.000000, 1446.000000)">
                <path d="M6.3,6.3476765 C7.14955754,6.39719373 7.97966878,6.0790062 8.58140256,5.47319872 C9.18313635,4.86739124 9.49918425,4.0316602 9.45,3.17635121 C9.49918425,2.32104223 9.18313635,1.48531119 8.58140256,0.87950371 C7.97966878,0.273696226 7.14955754,-0.0444913003 6.3,0.00502592479 C5.45044246,-0.0444913003 4.62033122,0.273696226 4.01859744,0.87950371 C3.41686365,1.48531119 3.10081575,2.32104223 3.15,3.17635121 C3.10081575,4.0316602 3.41686365,4.86739124 4.01859744,5.47319872 C4.62033122,6.0790062 5.45044246,6.39719373 6.3,6.3476765 L6.3,6.3476765 Z M6.3,1.8172118 C6.67028432,1.77071807 7.0411564,1.89888658 7.30501542,2.16453191 C7.56887444,2.43017724 7.6961811,2.8035601 7.65,3.17635121 C7.6961811,3.54914233 7.56887444,3.92252519 7.30501542,4.18817052 C7.0411564,4.45381585 6.67028432,4.58198436 6.3,4.53549062 C5.92971568,4.58198436 5.5588436,4.45381585 5.29498458,4.18817052 C5.03112556,3.92252519 4.9038189,3.54914233 4.95,3.17635121 C4.9038189,2.8035601 5.03112556,2.43017724 5.29498458,2.16453191 C5.5588436,1.89888658 5.92971568,1.77071807 6.3,1.8172118 L6.3,1.8172118 Z M2.7,12.6903271 L0.9,12.6903271 L0.9,11.7842341 C0.9,8.98984352 2.97,7.25376944 6.3,7.25376944 C9.63,7.25376944 11.7,8.98984352 11.7,11.7842341 L11.7,12.6903271 L9.9,12.6903271 L9.9,11.7842341 C9.9,9.53802974 7.9425,9.06595532 6.3,9.06595532 C4.6575,9.06595532 2.7,9.53802974 2.7,11.7842341 L2.7,12.6903271 Z M29.7,6.3476765 C30.5495575,6.39719373 31.3796688,6.0790062 31.9814026,5.47319872 C32.5831363,4.86739124 32.8991843,4.0316602 32.85,3.17635121 C32.8991843,2.32104223 32.5831363,1.48531119 31.9814026,0.87950371 C31.3796688,0.273696226 30.5495575,-0.0444913003 29.7,0.00502592479 C28.8504425,-0.0444913003 28.0203312,0.273696226 27.4185974,0.87950371 C26.8168637,1.48531119 26.5008157,2.32104223 26.55,3.17635121 C26.5008157,4.0316602 26.8168637,4.86739124 27.4185974,5.47319872 C28.0203312,6.0790062 28.8504425,6.39719373 29.7,6.3476765 L29.7,6.3476765 Z M29.7,1.8172118 C30.0702843,1.77071807 30.4411564,1.89888658 30.7050154,2.16453191 C30.9688744,2.43017724 31.0961811,2.8035601 31.05,3.17635121 C31.05,3.92698318 30.4455844,4.53549062 29.7,4.53549062 C28.9544156,4.53549062 28.35,3.92698318 28.35,3.17635121 C28.3038189,2.8035601 28.4311256,2.43017724 28.6949846,2.16453191 C28.9588436,1.89888658 29.3297157,1.77071807 29.7,1.8172118 Z M26.1,12.6903271 L24.3,12.6903271 L24.3,11.7842341 C24.3,8.98984352 26.37,7.25376944 29.7,7.25376944 C33.03,7.25376944 35.1,8.98984352 35.1,11.7842341 L35.1,12.6903271 L33.3,12.6903271 L33.3,11.7842341 C33.3,9.53802974 31.3425,9.06595532 29.7,9.06595532 C28.0575,9.06595532 26.1,9.53802974 26.1,11.7842341 L26.1,12.6903271 Z M12.6,16.3146988 L0,16.3146988 L0,14.502513 L12.6,14.502513 L12.6,16.3146988 Z M36,14.502513 L36,16.3146988 L23.4,16.3146988 L23.4,14.502513 L36,14.502513 Z M18,14.502513 C21.96,14.502513 23.4,10.9805297 23.4,8.61290885 C23.4,6.245288 21.96,2.72330474 18,2.72330474 C14.04,2.72330474 12.6,6.245288 12.6,8.61290885 C12.6,10.9805297 14.04,14.502513 18,14.502513 Z M18,4.53549062 C21.5586,4.53549062 21.6,8.44618775 21.6,8.61290885 C21.6,8.77962995 21.5586,12.6903271 18,12.6903271 C14.4414,12.6903271 14.4,8.77962995 14.4,8.61290885 C14.4,8.44618775 14.4414,4.53549062 18,4.53549062 Z M27,22.9772002 L27,29 L25.2,29 L25.2,22.9772002 C25.2,19.6445904 21.4686,18.1268847 18,18.1268847 C14.5314,18.1268847 10.8,19.6445904 10.8,22.9772002 L10.8,29 L9,29 L9,22.9772002 C9,18.3987126 13.6656,16.3146988 18,16.3146988 C22.3344,16.3146988 27,18.3987126 27,22.9772002 Z" id="Shape"></path>
            </g>
        </g>
    </g>
</svg>