<?xml version="1.0" encoding="UTF-8"?>
<svg width="38px" height="33px" viewBox="0 0 38 33" version="1.1" xmlns="http://www.w3.org/2000/svg" xmlns:xlink="http://www.w3.org/1999/xlink">
    <title>FCFE48D6-0121-4434-B6FC-7F0849DEACFC</title>
    <g id="Page-1" stroke="none" stroke-width="1" fill="none" fill-rule="evenodd">
        <g id="Organic-Chemistry-Mobile" transform="translate(-21.000000, -1380.000000)" fill="#007FFC" fill-rule="nonzero">
            <g id="noun_read_2198225" transform="translate(21.000000, 1380.000000)">
                <path d="M35.2620968,27.0734694 C35.2620968,26.7015225 34.9642217,26.4 34.5967742,26.4 L31.8762702,26.4 C31.7582648,25.141926 31.455539,23.9087048 30.9780847,22.7410408 C32.1582859,23.156043 33.2344538,23.8274881 34.1310484,24.7082449 L35.0625,23.7438367 C33.7115072,22.4162597 32.0151788,21.5052695 30.1717137,21.1173061 C29.6357587,20.1879325 28.9831985,19.3327027 28.2303024,18.5729388 C26.4288026,16.7320241 24.1112782,15.4968809 21.592379,15.0352041 C23.4446413,13.4785601 24.5463666,11.1909693 24.6169355,8.75510204 C24.6145724,8.52878116 24.5992442,8.30278948 24.5710282,8.07826531 C24.5863306,8.07826531 24.6016331,8.08163265 24.6169355,8.08163265 C24.984383,8.08163265 25.2822581,7.78011014 25.2822581,7.40816327 L25.2822581,6.11644898 C25.2942424,2.77428557 22.6450348,0.0457714637 19.3435887,0 L19.2943548,0 C14.5175371,0 10.6451613,3.9197927 10.6451613,8.75510204 C10.6451613,9.12704891 10.9430364,9.42857143 11.3104839,9.42857143 L12.6770565,9.42857143 C12.9243773,11.617849 13.9968819,13.6260367 15.6710081,15.0345306 C12.0743142,15.7055945 8.9426604,17.9243492 7.08834677,21.1152857 C5.24426874,21.5026209 3.5473479,22.4136814 2.19622984,23.7418163 L3.12768145,24.7062245 C4.02475212,23.8247672 5.10162666,23.1528466 6.28264113,22.7376735 C5.80420091,23.9063002 5.50079637,25.1406807 5.38245968,26.4 L2.66129032,26.4 C2.29384281,26.4 1.99596774,26.7015225 1.99596774,27.0734694 L1.99596774,31.6530612 L0,31.6530612 L0,33 L12.7196371,33 C14.4101295,32.9373796 16.0821928,32.6221565 17.6816129,32.064551 C18.2991449,31.8767259 18.957589,31.8767259 19.575121,32.064551 C21.1750676,32.6218951 22.8475307,32.9371091 24.5384274,33 L37.2580645,33 L37.2580645,31.6530612 L35.2620968,31.6530612 L35.2620968,27.0734694 Z M30.5383065,26.4 L20.2643952,26.4 L21.9769355,24.7095918 C23.9251192,22.8050532 26.6372759,21.9255204 29.3161089,22.329551 C29.9726263,23.59655 30.3872676,24.9774857 30.5383065,26.4 L30.5383065,26.4 Z M14.1321169,3.50204082 C15.5007107,2.11651384 17.3587582,1.34082663 19.2943548,1.34690293 L19.3362702,1.34690293 C21.9062935,1.38715252 23.9650525,3.51468072 23.9516783,6.11644898 L23.9516783,6.6747551 C22.6630809,6.3616437 21.4855375,5.69304447 20.5498185,4.7432449 C20.2407419,4.44257162 19.7972409,4.330531 19.3848387,4.44893878 C18.9494521,4.57253481 18.6112639,4.92024493 18.4959677,5.36283673 C18.056046,6.96711298 16.6145479,8.07854404 14.9697581,8.08163265 L12.0050806,8.08163265 C12.1566142,6.34806145 12.9110752,4.72520043 14.1341129,3.50204082 L14.1321169,3.50204082 Z M14.0190121,9.42857143 L14.9697581,9.42857143 C17.1780662,9.43626222 19.1212858,7.95460094 19.7234879,5.80395918 C20.7019005,6.76277154 21.8903015,7.47397443 23.1918145,7.87959184 C23.2522309,8.16748324 23.2838822,8.46079677 23.2862903,8.75510204 C23.2862903,11.4267551 21.0907258,14.8163265 18.6290323,14.8163265 C16.3669355,14.8163265 14.3396976,11.9628367 14.0203427,9.42857143 L14.0190121,9.42857143 Z M17.9637097,16.1631849 L19.2943548,16.1631849 C22.2958176,16.1518264 25.1758584,17.3620682 27.286875,19.5218571 C27.7088558,19.9502725 28.0968308,20.4116801 28.4471976,20.9017959 C25.6995356,20.7799561 23.0234205,21.8080265 21.0474798,23.7445102 L18.6290323,26.1306122 L16.2105847,23.7431633 C14.2347946,21.8073014 11.5593536,20.7793051 8.81219758,20.900449 C10.9348737,17.9262277 14.3389305,16.1641536 17.9637097,16.1631849 Z M7.94328629,22.3282041 C10.6219004,21.9243918 13.3337625,22.8039088 15.2817944,24.7082449 L16.9943347,26.3986531 L6.71975806,26.3986531 C6.87121213,24.9760491 7.28630622,23.5951089 7.94328629,22.3282041 Z M17.2983871,30.777551 C15.823523,31.2934463 14.2820953,31.5883995 12.7229637,31.6530612 L3.3266129,31.6530612 L3.3266129,27.7469388 L17.9637097,27.7469388 L17.9637097,30.6266939 C17.738548,30.6602165 17.5161606,30.7106413 17.2983871,30.777551 Z M19.9596774,30.777551 C19.7419091,30.7107819 19.5195155,30.6605809 19.2943548,30.6273673 L19.2943548,27.7469388 L33.9314516,27.7469388 L33.9314516,31.6530612 L24.5384274,31.6530612 C22.9782169,31.5883515 21.4356986,31.293404 19.9596774,30.777551 L19.9596774,30.777551 Z" id="Shape"></path>
            </g>
        </g>
    </g>
</svg>