<?xml version="1.0" encoding="UTF-8"?>
<svg width="36px" height="35px" viewBox="0 0 36 35" version="1.1" xmlns="http://www.w3.org/2000/svg" xmlns:xlink="http://www.w3.org/1999/xlink">
    <title>0372751D-3640-4849-8991-7B69A3A9D740</title>
    <g id="Page-1" stroke="none" stroke-width="1" fill="none" fill-rule="evenodd">
        <g id="Organic-Chemistry-Mobile" transform="translate(-22.000000, -998.000000)" fill="#007FFC" fill-rule="nonzero">
            <g id="noun_recording_3211270" transform="translate(22.000000, 998.000000)">
                <path d="M19.7819294,18.4333907 L5.07938076,18.4333907 C4.40232461,18.4333907 3.85133738,18.984378 3.85133738,19.6614341 L3.85133738,25.3602774 C3.85133738,26.0373335 4.40232467,26.5880554 5.07938076,26.5880554 L19.7819294,26.5880554 C20.4589855,26.5880554 21.0097074,26.0373335 21.0097074,25.3602774 L21.0097074,19.6614341 C21.0097074,18.9843779 20.4589855,18.4333907 19.7819294,18.4333907 Z M19.9225957,25.3602774 C19.9225957,25.4377765 19.8594286,25.5009437 19.7819294,25.5009437 L5.07938076,25.5009437 C5.00161618,25.5009437 4.93844907,25.4377766 4.93844907,25.3602774 L4.93844907,19.6614341 C4.93844907,19.5836695 5.00161618,19.5205024 5.07938076,19.5205024 L19.7819294,19.5205024 C19.8594285,19.5205024 19.9225957,19.5836695 19.9225957,19.6614341 L19.9225957,25.3602774 L19.9225957,25.3602774 Z" id="Shape"></path>
                <path d="M35.6167091,17.1023689 C35.4569334,17.0036371 35.2565502,16.9943478 35.0877507,17.0787476 L30.2293222,19.5106823 L28.0708906,19.5106823 L28.0708906,17.9760925 C28.0708906,16.7443334 27.0689749,15.7421523 25.8372158,15.7421523 L23.2715486,15.7421523 C25.9074826,14.332437 27.7062198,11.5542775 27.7062198,8.36194848 C27.7062198,3.75127848 23.9533489,0 19.3405557,0 C15.073556,0 11.5489361,3.21200232 11.0434995,7.34278127 C9.97181462,6.00562194 8.32781035,5.14573279 6.48445137,5.14573279 C3.26266211,5.14573279 0.641491454,7.76584182 0.641491454,10.986304 C0.641491454,12.9473715 1.61583786,14.6818136 3.10245516,15.7421523 L2.23394022,15.7421523 C1.00218109,15.7421523 0,16.7443334 0,17.9760925 L0,32.5509798 C0,33.7827389 1.00218109,34.78492 2.23394022,34.78492 L25.8372158,34.78492 C27.0689749,34.78492 28.0708906,33.7827389 28.0708906,32.5509798 L28.0708906,29.8783199 L30.2293222,29.8783199 L35.0877507,32.3102546 C35.164719,32.3487388 35.2480572,32.3678482 35.3311299,32.3678482 C35.4303926,32.3678482 35.5296552,32.3405112 35.6167091,32.2866333 C35.7770156,32.1876361 35.8746858,32.0127321 35.8746858,31.8242924 L35.8746858,17.5647099 C35.8746858,17.3762701 35.7770156,17.2013661 35.6167091,17.1023689 Z M15.4095959,15.7421523 L9.86644763,15.7421523 C10.9424786,14.9746583 11.7459021,13.8536739 12.1090136,12.5483636 C12.8916026,13.894779 14.0336869,15.0063082 15.4095959,15.7421523 Z M12.0620032,8.36194848 C12.0620032,4.35057005 15.3270539,1.08711169 19.3405557,1.08711169 C23.3540574,1.08711169 26.6191082,4.35057005 26.6191082,8.36194848 C26.6191082,12.3754502 23.3540574,15.640501 19.3405557,15.640501 C15.831628,15.640501 12.8951856,13.1446361 12.212191,9.83499678 C12.2100346,9.82431411 12.2086412,9.81339919 12.2064184,9.80274968 C12.1124639,9.33675936 12.0620032,8.85520949 12.0620032,8.36194848 Z M1.72860314,10.986304 C1.72860314,8.36513339 3.86195368,6.23284448 6.48445137,6.23284448 C8.77615103,6.23284448 10.6938906,7.86125604 11.1413687,10.0211474 C11.1435916,10.0320623 11.1450513,10.0432426 11.1473072,10.0541575 C11.2075549,10.3557938 11.2402996,10.6672171 11.2402996,10.986304 C11.2402996,13.6088017 9.10694906,15.7421523 6.48445137,15.7421523 C3.86195368,15.7421523 1.72860314,13.6088017 1.72860314,10.986304 Z M26.9837789,32.5509798 C26.9837789,33.1834473 26.4694179,33.6978083 25.8372158,33.6978083 L2.23394022,33.6978083 C1.60147266,33.6978083 1.08711169,33.1834473 1.08711169,32.5509798 L1.08711169,17.9760925 C1.08711169,17.3436249 1.60147266,16.829264 2.23394022,16.829264 L25.8372158,16.829264 C26.4694179,16.829264 26.9837789,17.3436249 26.9837789,17.9760925 L26.9837789,20.0542381 L26.9837789,29.3347641 L26.9837789,32.5509798 Z M28.0708906,20.597794 L29.8140912,20.597794 L29.8140912,28.7912083 L28.0708906,28.7912083 L28.0708906,20.597794 Z M34.7875741,30.9444644 L30.9012029,28.9990228 L30.9012029,20.3899794 L34.7875741,18.4445378 L34.7875741,30.9444644 Z" id="Shape"></path>
                <path d="M19.3405557,13.5291793 C22.1894465,13.5291793 24.5069903,11.2116355 24.5069903,8.36274468 C24.5069903,5.5151809 22.1894465,3.19843332 19.3405557,3.19843332 C16.4916648,3.19843332 14.1741211,5.51518085 14.1741211,8.36274468 C14.1741211,11.2116356 16.4916648,13.5291793 19.3405557,13.5291793 Z M19.3405557,4.28554506 C21.5898896,4.28554506 23.4198786,6.11447247 23.4198786,8.36274474 C23.4198786,10.6120786 21.5898896,12.4420676 19.3405557,12.4420676 C17.0912218,12.4420676 15.2612328,10.6120786 15.2612328,8.36274474 C15.2612328,6.11447242 17.0912218,4.28554506 19.3405557,4.28554506 Z" id="Shape"></path>
                <path d="M6.48445137,8.45484131 C5.0876084,8.45484131 3.95139617,9.59078812 3.95139617,10.9871002 C3.95139617,12.3839432 5.08760835,13.5201554 6.48445137,13.5201554 C7.88129439,13.5201554 9.01777193,12.3839433 9.01777193,10.9871002 C9.01777193,9.59078812 7.88129433,8.45484131 6.48445137,8.45484131 Z M6.48445137,12.4330438 C5.68716534,12.4330438 5.03850786,11.7843863 5.03850786,10.9871002 C5.03850786,10.1903451 5.68716534,9.541953 6.48445137,9.541953 C7.28200282,9.541953 7.93066024,10.1903451 7.93066024,10.9871002 C7.93066024,11.7843863 7.28200282,12.4330438 6.48445137,12.4330438 Z" id="Shape"></path>
                <path d="M25.2920675,19.7012453 L23.7012112,19.7012453 C23.4010346,19.7012453 23.1576553,19.9446246 23.1576553,20.2448011 C23.1576553,20.5449777 23.4010346,20.788357 23.7012112,20.788357 L25.2920675,20.788357 C25.5922441,20.788357 25.8356233,20.5449777 25.8356233,20.2448011 C25.8356233,19.9446246 25.5922441,19.7012453 25.2920675,19.7012453 Z" id="Path"></path>
                <path d="M25.2920675,21.9261616 L23.7012112,21.9261616 C23.4010346,21.9261616 23.1576553,22.1695409 23.1576553,22.4697175 C23.1576553,22.7698941 23.4010346,23.0132733 23.7012112,23.0132733 L25.2920675,23.0132733 C25.5922441,23.0132733 25.8356233,22.7698941 25.8356233,22.4697175 C25.8356233,22.1695409 25.5922441,21.9261616 25.2920675,21.9261616 Z" id="Path"></path>
            </g>
        </g>
    </g>
</svg>