<?xml version="1.0" encoding="UTF-8"?>
<svg width="34px" height="32px" viewBox="0 0 34 32" version="1.1" xmlns="http://www.w3.org/2000/svg" xmlns:xlink="http://www.w3.org/1999/xlink">
    <title>37A27AE1-50A7-45D7-925C-0A96E2B8F862</title>
    <g id="Page-1" stroke="none" stroke-width="1" fill="none" fill-rule="evenodd">
        <g id="Organic-Chemistry-Mobile" transform="translate(-23.000000, -1069.000000)" fill="#188AFB" fill-rule="nonzero">
            <g id="noun_lesson_3928943" transform="translate(23.000000, 1069.000000)">
                <path d="M33.5140665,3.04368647 L31.9009719,3.04368647 L31.9009719,0.95020566 C31.9042262,0.771758737 31.7783723,0.616809337 31.6026598,0.582928325 C23.8612788,-0.933927071 17.9024041,0.95020566 16.9411765,1.28442804 C15.9799488,0.95020566 10.0210742,-0.933927071 2.27969309,0.582928325 C2.10398061,0.616809337 1.97812675,0.771758737 1.98138107,0.95020566 L1.98138107,3.04368647 L0.368286445,3.04368647 C0.164887458,3.04368647 0,3.20812214 0,3.41096381 L0,20.9815115 C0,21.1843532 0.164887458,21.3487889 0.368286445,21.3487889 L11.0117647,21.3487889 C11.3123497,21.7899293 11.6539075,22.2018728 12.0319182,22.579168 C14.6691731,25.1997081 18.7130301,25.7958318 21.9977494,24.0482773 L29.5107928,31.5407349 C29.800439,31.8382825 30.1998433,32.004245 30.6156522,31.9999174 C31.3509158,31.9453804 32.0380294,31.6145792 32.5381074,31.0742927 C33.3778005,30.2369004 33.8823529,28.9330659 33.0058312,28.055273 L26.2588235,21.3487889 L33.5140665,21.3487889 C33.7174655,21.3487889 33.8823529,21.1843532 33.8823529,20.9815115 L33.8823529,3.41096381 C33.8823529,3.20812214 33.7174655,3.04368647 33.5140665,3.04368647 Z M17.3094629,1.94185447 C21.8072312,0.618553772 26.5558248,0.379382947 31.164399,1.24402753 L31.164399,18.0690023 C29.5979526,17.7863031 28.0121892,17.6230045 26.4208696,17.5805234 C26.4590641,17.2587069 26.4787383,16.9349724 26.4797954,16.6109113 C26.4811357,14.2500614 25.4896039,11.9968592 23.746431,10.3994892 C22.003258,8.80211913 19.6682387,8.00701032 17.3094629,8.20760581 L17.3094629,1.94185447 Z M2.71795396,1.24402753 C7.32610089,0.379246742 12.0741557,0.61587313 16.57289,1.93450892 L16.57289,8.29575237 C12.511911,8.98889764 9.54449692,12.5021737 9.54966752,16.6109113 C9.55133233,16.9412841 9.57347173,17.2712385 9.61595908,17.5988873 C9.18506394,17.5988873 8.7431202,17.5695051 8.28644501,17.5695051 C6.4189988,17.5687317 4.55528721,17.7359078 2.71795396,18.0690023 L2.71795396,1.24402753 Z M0.73657289,20.6142342 L0.73657289,3.77824114 L1.98138107,3.77824114 L1.98138107,18.5097351 C1.98100216,18.6208689 2.03110289,18.7261973 2.11764706,18.7962114 C2.20189972,18.8652359 2.31249147,18.8934806 2.41964194,18.8733396 C4.82753971,18.4048705 7.28357371,18.229744 9.73381074,18.3518058 C9.89738618,19.1423622 10.1765845,19.9046508 10.5624552,20.6142342 L0.73657289,20.6142342 Z M18.0165729,24.320088 C14.3265425,24.3215496 11.1494176,21.7231356 10.4284775,18.1141329 C9.70753734,14.5051301 11.6436116,10.890885 15.052506,9.48204021 C18.4614005,8.07319539 22.393512,9.26220745 24.4437761,12.3218206 C26.4940402,15.3814338 26.0913223,19.459343 23.4819437,22.0613069 C22.0357889,23.5119724 20.0677545,24.3253314 18.0165729,24.320088 L18.0165729,24.320088 Z M32.4828645,28.5951707 C32.9800512,29.0909951 32.6264962,29.9651152 32.0151407,30.5747955 C31.4037852,31.1844759 30.5419949,31.5370622 30.0300767,31.037565 L22.6643478,23.6920183 C23.6403866,23.0529094 24.4740552,22.2202749 25.1134527,21.2459512 L32.4828645,28.5951707 Z M33.1457801,20.6142342 L25.5222506,20.6142342 L25.4891049,20.5811792 C25.8676935,19.870748 26.1429849,19.1102062 26.3067008,18.3224236 C28.0381478,18.356464 29.763334,18.5407989 31.462711,18.8733396 C31.5698615,18.8934806 31.6804532,18.8652359 31.7647059,18.7962114 C31.8512501,18.7261973 31.9013508,18.6208689 31.9009719,18.5097351 L31.9009719,3.77824114 L33.1457801,3.77824114 L33.1457801,20.6142342 Z" id="Shape"></path>
                <path d="M22.0280823,12.7988249 C20.4211214,11.1920033 18.0041613,10.7111895 15.9043124,11.5806033 C13.8044635,12.4500171 12.435294,14.4984262 12.435294,16.770588 C12.435294,19.0427498 13.8044635,21.0911589 15.9043124,21.9605727 C18.0041613,22.8299865 20.4211214,22.3491727 22.0280823,20.7423511 C24.2180899,18.5470837 24.2180899,14.9940923 22.0280823,12.7988249 Z M21.5347497,20.2456621 C19.6144725,22.1633995 16.502867,22.1623242 14.5839163,20.2432602 C12.6649657,18.3241962 12.6649657,15.213482 14.5839163,13.294418 C16.502867,11.3753539 19.6144725,11.3742787 21.5347497,13.2920161 C22.462067,14.2114967 22.9836697,15.4631327 22.9836697,16.7688391 C22.9836697,18.0745455 22.462067,19.3261815 21.5347497,20.2456621 L21.5347497,20.2456621 Z" id="Shape"></path>
            </g>
        </g>
    </g>
</svg>