<?xml version="1.0" encoding="utf-8"?>
<!-- Generator: Adobe Illustrator 18.1.1, SVG Export Plug-In . SVG Version: 6.00 Build 0)  -->
<svg version="1.1" id="Layer_1" xmlns="http://www.w3.org/2000/svg" xmlns:xlink="http://www.w3.org/1999/xlink" x="0px" y="0px"
	 viewBox="7 -7 24 24" enable-background="new 7 -7 24 24" xml:space="preserve">
<title>42F1F5B4-E1CD-4D99-B72A-5E80A6F0C0C0</title>
<polygon id="Path" fill="none" points="7,-7 31,-7 31,17 7,17 "/>
<path id="Shape" opacity="0.3" fill="#515151" enable-background="new    " d="M19,13c4.4,0,8-3.6,8-8s-3.6-8-8-8s-8,3.6-8,8
	S14.6,13,19,13z M17,0.5L23,5l-6,4.5V0.5z"/>
<path id="Shape_1_" d="M19,15c5.5,0,10-4.5,10-10S24.5-5,19-5S9-0.5,9,5S13.5,15,19,15z M19-3c4.4,0,8,3.6,8,8s-3.6,8-8,8
	s-8-3.6-8-8S14.6-3,19-3z M17,0.5v9L23,5L17,0.5z"/>
</svg>
