<?xml version="1.0" encoding="UTF-8"?>
<svg width="30px" height="40px" viewBox="0 0 30 40" version="1.1" xmlns="http://www.w3.org/2000/svg" xmlns:xlink="http://www.w3.org/1999/xlink">
    <title>6A8A281D-E1D0-4274-8A9A-72DA1FCBFA55</title>
    <g id="Page-1" stroke="none" stroke-width="1" fill="none" fill-rule="evenodd">
        <g id="AhaGuru-1-Chemistry" transform="translate(-205.000000, -241.000000)" fill="#4EA0FC" fill-rule="nonzero">
            <path d="M225.912414,254.282069 C225.461379,253.873103 225.035862,253.689655 224.666897,253.621379 C224.144138,251.501379 222.231034,249.966207 219.989655,249.966207 C217.327586,249.966207 215.162069,252.131724 215.162069,254.793793 C215.162069,257.455862 217.327586,259.621379 219.989655,259.621379 C221.387586,259.621379 222.710345,258.994483 223.621379,257.955862 L223.927586,258.262069 L222.3,260.310345 L215.155172,260.310345 C214.048966,260.32069 212.402069,261.063448 212.402758,263.068966 L212.402758,269.965517 C212.402758,270.101379 212.443448,270.235172 212.518621,270.348276 C212.602759,270.473793 213.369655,271.574483 214.522759,271.574483 C214.744138,271.574483 214.955172,271.522069 215.161379,271.444138 L215.161379,278.246207 C215.168966,279.353103 215.909655,281 217.92,281 C218.883448,281 219.549655,280.616552 219.988966,280.09931 C220.428276,280.616552 221.094483,281 222.057931,281 C224.068276,281 224.808966,279.353103 224.816552,278.241379 L224.816552,265.334483 L229.311034,258.088276 C229.488276,257.802069 229.433793,257.429655 229.181379,257.207586 C229.17931,257.206207 227.746207,255.943448 225.912414,254.282069 Z M219.988966,258.241379 C218.087586,258.241379 216.54069,256.694483 216.54069,254.793103 C216.54069,252.891724 218.087586,251.344828 219.988966,251.344828 C221.566897,251.344828 222.908966,252.411724 223.304828,253.889655 C222.788276,254.226207 222.416552,254.810345 222.324828,255.482069 C222.250345,256.028276 222.38,256.544138 222.663448,256.96069 C222.012414,257.75931 221.028276,258.241379 219.988966,258.241379 Z M223.541379,264.774483 C223.473793,264.883448 223.437931,265.009655 223.437931,265.137931 L223.437931,278.236552 C223.437241,278.377931 223.390345,279.62069 222.058621,279.62069 C220.808966,279.62069 220.686897,278.558621 220.67931,278.231724 L220.67931,272.724138 C220.67931,272.342759 220.370345,272.034483 219.989655,272.034483 C219.608966,272.034483 219.3,272.342759 219.3,272.724138 L219.3,278.231034 C219.292414,278.557241 219.171034,279.62069 217.92069,279.62069 C216.669655,279.62069 216.548276,278.557241 216.541379,278.241379 L216.541379,265.137931 C216.541379,264.756552 216.232414,264.448276 215.851724,264.448276 C215.471034,264.448276 215.162069,264.756552 215.162069,265.137931 L215.162069,269.742759 C214.997931,269.956552 214.763448,270.193793 214.525517,270.195172 C214.524828,270.195172 214.524138,270.195172 214.523448,270.195172 C214.261379,270.195172 213.962759,269.936552 213.782759,269.730345 L213.782759,263.068966 C213.782759,261.82 214.846897,261.697931 215.162069,261.689655 L222.633103,261.689655 C222.843448,261.689655 223.042069,261.593793 223.173103,261.428966 L225.389655,258.637931 C225.607586,258.363448 225.584828,257.968966 225.337241,257.721379 L224.031724,256.415862 C224.004828,256.388966 223.976552,256.364828 223.945517,256.342759 C223.671034,256.146207 223.668276,255.836552 223.691034,255.669655 C223.734483,255.353103 223.925517,255.073103 224.155862,254.989655 C224.44069,254.888966 224.764138,255.104138 224.985517,255.304828 C226.217931,256.42069 227.269655,257.357931 227.831724,257.856552 L223.541379,264.774483 Z M234.458621,249.334483 C234.458621,250.516552 233.658621,251.515172 232.571724,251.817241 L232.571724,252.353103 C232.571724,252.733793 232.262759,253.042759 231.882069,253.042759 C231.501379,253.042759 231.192414,252.733793 231.192414,252.353103 L231.192414,251.221379 C231.192414,250.84069 231.501379,250.531724 231.882069,250.531724 C232.542759,250.531724 233.07931,249.994483 233.07931,249.334483 C233.07931,248.674483 232.542069,248.137241 231.882069,248.137241 C231.222069,248.137241 230.686207,248.674483 230.686207,249.334483 C230.686207,249.715172 230.377241,250.024138 229.996552,250.024138 C229.615862,250.024138 229.306897,249.715172 229.306897,249.334483 C229.306897,247.913793 230.462069,246.757931 231.882069,246.757931 C233.302759,246.757931 234.458621,247.913793 234.458621,249.334483 Z M232.571724,254.175172 L232.571724,254.552414 C232.571724,254.933103 232.262759,255.242069 231.882069,255.242069 C231.501379,255.242069 231.192414,254.933103 231.192414,254.552414 L231.192414,254.175172 C231.192414,253.794483 231.501379,253.485517 231.882069,253.485517 C232.262759,253.485517 232.571724,253.793793 232.571724,254.175172 Z M210.151724,249.231034 C210.151724,250.413103 209.351724,251.411724 208.265517,251.713793 L208.265517,252.249655 C208.265517,252.630345 207.956552,252.93931 207.575862,252.93931 C207.195172,252.93931 206.886207,252.630345 206.886207,252.249655 L206.886207,251.117241 C206.886207,250.736552 207.195172,250.427586 207.575862,250.427586 C208.235862,250.427586 208.772414,249.890345 208.772414,249.230345 C208.772414,248.570345 208.235862,248.033103 207.575862,248.033103 C206.915862,248.033103 206.37931,248.570345 206.37931,249.230345 C206.37931,249.611034 206.070345,249.92 205.689655,249.92 C205.308966,249.92 205,249.611034 205,249.230345 C205,247.809655 206.155862,246.653793 207.575862,246.653793 C208.995862,246.653793 210.151724,247.810345 210.151724,249.231034 Z M208.264828,254.071034 L208.264828,254.448276 C208.264828,254.828966 207.955862,255.137931 207.575172,255.137931 C207.194483,255.137931 206.885517,254.828966 206.885517,254.448276 L206.885517,254.071034 C206.885517,253.690345 207.194483,253.381379 207.575172,253.381379 C207.955862,253.381379 208.264828,253.690345 208.264828,254.071034 Z M216.335862,242.986897 C216.335862,241.891034 217.226897,241 218.322759,241 C219.418621,241 220.309655,241.891034 220.309655,242.986897 C220.309655,243.84069 219.768966,244.569655 219.012414,244.851034 L219.012414,245.063448 C219.012414,245.444138 218.703448,245.753103 218.322759,245.753103 C217.942069,245.753103 217.633103,245.444138 217.633103,245.063448 L217.633103,244.284828 C217.633103,243.904138 217.942069,243.595172 218.322759,243.595172 C218.657931,243.595172 218.930345,243.322069 218.930345,242.986897 C218.930345,242.652414 218.657931,242.37931 218.322759,242.37931 C217.987586,242.37931 217.715172,242.652414 217.715172,242.986897 C217.715172,243.367586 217.406207,243.676552 217.025517,243.676552 C216.644828,243.676552 216.335862,243.368276 216.335862,242.986897 Z M219.012414,247.005517 L219.012414,247.264828 C219.012414,247.645517 218.703448,247.954483 218.322759,247.954483 C217.942069,247.954483 217.633103,247.645517 217.633103,247.264828 L217.633103,247.005517 C217.633103,246.624828 217.942069,246.315862 218.322759,246.315862 C218.703448,246.315862 219.012414,246.624828 219.012414,247.005517 Z" id="Shape"></path>
        </g>
    </g>
</svg>