<?xml version="1.0" encoding="UTF-8"?>
<svg width="28px" height="36px" viewBox="0 0 28 36" version="1.1" xmlns="http://www.w3.org/2000/svg" xmlns:xlink="http://www.w3.org/1999/xlink">
    <title>F7D48939-ACE3-4F50-8B04-6C1A6A938981</title>
    <g id="Page-1" stroke="none" stroke-width="1" fill="none" fill-rule="evenodd">
        <g id="AhaGuru-1-Chemistry" transform="translate(-205.000000, -376.000000)" fill="#4EA0FC" fill-rule="nonzero">
            <path d="M215.289587,378.319462 C214.750143,378.365989 213.388586,378.604766 212.37905,379.817307 C211.251004,381.17206 210.949021,383.257191 211.481661,386.0152 C211.495761,388.65596 212.795018,390.98604 214.761336,392.365758 L214.761336,394.259818 L214.487445,393.903846 C214.412607,393.806624 214.301558,393.744296 214.179536,393.731128 C214.059708,393.719496 213.935711,393.755269 213.84178,393.834057 L211.994329,395.389181 C211.829951,395.527663 211.786497,395.763148 211.890742,395.95101 L211.935924,396.032486 C208.084215,396.218619 205,399.754794 205,404.087432 L205,411.550537 C205,411.798751 205.201249,412 205.449463,412 L232.229383,412 C232.477597,412 232.678846,411.798751 232.678846,411.550537 L232.678846,404.087432 C232.678846,399.733917 229.565058,396.183807 225.687397,396.029359 L225.730823,395.95101 C225.835069,395.763148 225.791615,395.527663 225.627236,395.389181 L223.779785,393.834057 C223.686074,393.755269 223.564052,393.719057 223.44203,393.731128 C223.320227,393.744296 223.208958,393.806624 223.134121,393.903846 L222.837844,394.288869 L222.837844,392.504624 C224.936307,391.137004 226.338849,388.712965 226.337862,385.93334 C226.328781,385.82668 226.320798,385.713381 226.313529,385.596571 C226.315998,385.576161 226.310511,385.555312 226.310127,385.534463 C226.218528,383.969051 226.30176,381.643415 226.911761,381.001756 C226.993841,380.915506 227.038392,380.800287 227.03532,380.681118 C227.018201,379.967859 224.390335,377.217312 221.663271,376.325629 C219.93455,375.760288 217.439899,375.658676 215.289587,378.319462 Z M214.061464,394.82428 L217.999752,399.942628 L216.041691,401.583782 L212.856385,395.838644 L214.061464,394.82428 Z M225.426865,396.913581 C228.929955,396.913581 231.77992,400.131806 231.77992,404.087432 L231.77992,411.101074 L226.856237,411.101074 L226.856237,408.289297 C226.856237,408.041082 226.654988,407.839834 226.406774,407.839834 C226.158559,407.839834 225.957311,408.041082 225.957311,408.289297 L225.957311,411.101074 L211.832804,411.101074 L211.832804,408.289297 C211.832804,408.041082 211.631555,407.839834 211.383341,407.839834 C211.135126,407.839834 210.933877,408.041082 210.933877,408.289297 L210.933877,411.101074 L205.898926,411.101074 L205.898926,404.087432 C205.898926,400.131806 208.74889,396.913581 212.25198,396.913581 L212.424452,396.913581 L215.519805,402.496096 C215.584766,402.613509 215.698888,402.695589 215.830786,402.720169 C215.858219,402.725217 215.885652,402.727631 215.912866,402.727631 C216.01755,402.727631 216.12004,402.69098 216.201681,402.622727 L218.810783,400.435984 L221.420104,402.622727 C221.501526,402.69098 221.604015,402.727631 221.7087,402.727631 C221.735913,402.727631 221.763346,402.725217 221.79078,402.720169 C221.922678,402.695589 222.036799,402.613509 222.101761,402.496096 L225.197113,396.913581 L225.426865,396.913581 L225.426865,396.913581 Z M223.560101,394.82428 L224.76518,395.838644 L221.579874,401.583782 L219.621594,399.942628 L223.560101,394.82428 Z M221.938918,395.457105 L218.810673,399.522491 L215.660262,395.428081 L215.660262,392.896532 C216.6436,393.396088 217.743966,393.684382 218.910529,393.684382 C219.989636,393.684382 221.012806,393.438829 221.938918,393.006676 L221.938918,395.457105 L221.938918,395.457105 Z M218.910529,392.785456 C215.320586,392.785456 212.399515,389.746505 212.381986,386.004748 C212.869416,383.044996 214.769072,381.814899 215.586522,381.416105 C215.698229,381.59409 215.867656,381.794461 216.12399,381.979031 C217.002945,382.612185 218.441973,382.750887 220.400473,382.39316 C223.934946,381.746371 225.223449,385.043439 225.414273,385.600248 C225.425027,385.780044 225.435369,385.913835 225.440472,385.971307 C225.440472,389.728537 222.511062,392.785456 218.910529,392.785456 Z M215.872484,379.032063 C217.132648,377.395298 218.657048,376.69389 220.408374,376.94803 C223.078158,377.335604 225.554374,379.860102 226.065068,380.633495 C225.606442,381.343873 225.440911,382.565302 225.394412,383.664352 C224.508626,382.410744 222.897676,381.022742 220.238508,381.508718 C216.600886,382.174573 216.267301,380.768465 216.266203,380.766709 C216.247549,380.63525 216.171834,380.518934 216.059248,380.448706 C215.946883,380.378477 215.80862,380.362017 215.682647,380.402618 C215.567045,380.440092 213.343816,381.194034 212.134046,383.764071 C212.10472,382.324111 212.408952,381.192937 213.061365,380.402838 C214.039518,379.218169 215.495444,379.207196 215.511246,379.207196 C215.667943,379.218388 215.786235,379.14399 215.872484,379.032063 Z" id="Shape"></path>
        </g>
    </g>
</svg>